<mxfile host="app.diagrams.net" modified="2023-12-02T16:45:09.289Z" agent="Mozilla/5.0 (Windows NT 10.0; Win64; x64) AppleWebKit/537.36 (KHTML, like Gecko) Chrome/119.0.0.0 Safari/537.36" etag="JhjuL6MhpE0EihOqyB9K" version="22.1.5" type="device">
  <diagram name="Página-1" id="bkQbWchfZhpnF6pJPGYp">
    <mxGraphModel dx="2206" dy="1148" grid="1" gridSize="10" guides="1" tooltips="1" connect="1" arrows="1" fold="1" page="1" pageScale="1" pageWidth="2336" pageHeight="1654" math="0" shadow="0">
      <root>
        <mxCell id="0" />
        <mxCell id="1" parent="0" />
        <mxCell id="KH_VAxzwDXU7XK9pUjr3-1" value="Evento" style="whiteSpace=wrap;html=1;align=center;" parent="1" vertex="1">
          <mxGeometry x="1207.5" y="290" width="100" height="40" as="geometry" />
        </mxCell>
        <mxCell id="KH_VAxzwDXU7XK9pUjr3-2" value="Amistoso" style="whiteSpace=wrap;html=1;align=center;" parent="1" vertex="1">
          <mxGeometry x="1082" y="520" width="100" height="40" as="geometry" />
        </mxCell>
        <mxCell id="KH_VAxzwDXU7XK9pUjr3-3" value="" style="verticalLabelPosition=bottom;verticalAlign=top;html=1;shape=mxgraph.basic.acute_triangle;dx=0.5;" parent="1" vertex="1">
          <mxGeometry x="1226" y="400" width="63" height="50" as="geometry" />
        </mxCell>
        <mxCell id="KH_VAxzwDXU7XK9pUjr3-4" value="Liga" style="whiteSpace=wrap;html=1;align=center;" parent="1" vertex="1">
          <mxGeometry x="1207.5" y="520" width="100" height="40" as="geometry" />
        </mxCell>
        <mxCell id="KH_VAxzwDXU7XK9pUjr3-5" value="Copa" style="whiteSpace=wrap;html=1;align=center;" parent="1" vertex="1">
          <mxGeometry x="1334" y="520" width="100" height="40" as="geometry" />
        </mxCell>
        <mxCell id="KH_VAxzwDXU7XK9pUjr3-6" value="" style="endArrow=none;html=1;rounded=0;entryX=0.5;entryY=1;entryDx=0;entryDy=0;exitX=0;exitY=0;exitDx=31.5;exitDy=0;exitPerimeter=0;" parent="1" source="KH_VAxzwDXU7XK9pUjr3-3" target="KH_VAxzwDXU7XK9pUjr3-1" edge="1">
          <mxGeometry relative="1" as="geometry">
            <mxPoint x="1024" y="580" as="sourcePoint" />
            <mxPoint x="1184" y="580" as="targetPoint" />
          </mxGeometry>
        </mxCell>
        <mxCell id="KH_VAxzwDXU7XK9pUjr3-7" value="" style="endArrow=none;html=1;rounded=0;entryX=0.5;entryY=0;entryDx=0;entryDy=0;exitX=0;exitY=1;exitDx=0;exitDy=0;exitPerimeter=0;" parent="1" source="KH_VAxzwDXU7XK9pUjr3-3" target="KH_VAxzwDXU7XK9pUjr3-2" edge="1">
          <mxGeometry relative="1" as="geometry">
            <mxPoint x="1268" y="410" as="sourcePoint" />
            <mxPoint x="1268" y="340" as="targetPoint" />
          </mxGeometry>
        </mxCell>
        <mxCell id="KH_VAxzwDXU7XK9pUjr3-9" value="" style="endArrow=none;html=1;rounded=0;entryX=0.5;entryY=0;entryDx=0;entryDy=0;exitX=0.5;exitY=1;exitDx=0;exitDy=0;exitPerimeter=0;" parent="1" source="KH_VAxzwDXU7XK9pUjr3-3" target="KH_VAxzwDXU7XK9pUjr3-4" edge="1">
          <mxGeometry relative="1" as="geometry">
            <mxPoint x="1236" y="460" as="sourcePoint" />
            <mxPoint x="1142" y="530" as="targetPoint" />
          </mxGeometry>
        </mxCell>
        <mxCell id="KH_VAxzwDXU7XK9pUjr3-10" value="" style="endArrow=none;html=1;rounded=0;entryX=0.5;entryY=0;entryDx=0;entryDy=0;exitX=1;exitY=1;exitDx=0;exitDy=0;exitPerimeter=0;" parent="1" source="KH_VAxzwDXU7XK9pUjr3-3" target="KH_VAxzwDXU7XK9pUjr3-5" edge="1">
          <mxGeometry relative="1" as="geometry">
            <mxPoint x="1268" y="460" as="sourcePoint" />
            <mxPoint x="1268" y="530" as="targetPoint" />
          </mxGeometry>
        </mxCell>
        <mxCell id="KH_VAxzwDXU7XK9pUjr3-11" value="Jogos" style="whiteSpace=wrap;html=1;align=center;" parent="1" vertex="1">
          <mxGeometry x="820" y="290" width="100" height="40" as="geometry" />
        </mxCell>
        <mxCell id="KH_VAxzwDXU7XK9pUjr3-12" value="Tem" style="shape=rhombus;perimeter=rhombusPerimeter;whiteSpace=wrap;html=1;align=center;" parent="1" vertex="1">
          <mxGeometry x="1054" y="285" width="90" height="50" as="geometry" />
        </mxCell>
        <mxCell id="KH_VAxzwDXU7XK9pUjr3-13" value="" style="endArrow=none;html=1;rounded=0;entryX=0;entryY=0.5;entryDx=0;entryDy=0;exitX=1;exitY=0.5;exitDx=0;exitDy=0;" parent="1" source="KH_VAxzwDXU7XK9pUjr3-12" target="KH_VAxzwDXU7XK9pUjr3-1" edge="1">
          <mxGeometry relative="1" as="geometry">
            <mxPoint x="1024" y="580" as="sourcePoint" />
            <mxPoint x="1184" y="580" as="targetPoint" />
          </mxGeometry>
        </mxCell>
        <mxCell id="KH_VAxzwDXU7XK9pUjr3-14" value="(1,1)" style="resizable=0;html=1;whiteSpace=wrap;align=right;verticalAlign=bottom;" parent="KH_VAxzwDXU7XK9pUjr3-13" connectable="0" vertex="1">
          <mxGeometry x="1" relative="1" as="geometry">
            <mxPoint x="-3" as="offset" />
          </mxGeometry>
        </mxCell>
        <mxCell id="KH_VAxzwDXU7XK9pUjr3-15" value="" style="endArrow=none;html=1;rounded=0;entryX=1;entryY=0.5;entryDx=0;entryDy=0;exitX=0;exitY=0.5;exitDx=0;exitDy=0;" parent="1" source="KH_VAxzwDXU7XK9pUjr3-12" target="KH_VAxzwDXU7XK9pUjr3-11" edge="1">
          <mxGeometry relative="1" as="geometry">
            <mxPoint x="950" y="580" as="sourcePoint" />
            <mxPoint x="1110" y="580" as="targetPoint" />
          </mxGeometry>
        </mxCell>
        <mxCell id="KH_VAxzwDXU7XK9pUjr3-16" value="(1,N)" style="resizable=0;html=1;whiteSpace=wrap;align=right;verticalAlign=bottom;" parent="KH_VAxzwDXU7XK9pUjr3-15" connectable="0" vertex="1">
          <mxGeometry x="1" relative="1" as="geometry">
            <mxPoint x="35" y="-2" as="offset" />
          </mxGeometry>
        </mxCell>
        <mxCell id="KH_VAxzwDXU7XK9pUjr3-18" value="Ano" style="ellipse;whiteSpace=wrap;html=1;align=center;" parent="1" vertex="1">
          <mxGeometry x="1364" y="290" width="60" height="40" as="geometry" />
        </mxCell>
        <mxCell id="KH_VAxzwDXU7XK9pUjr3-19" value="" style="endArrow=none;html=1;rounded=0;entryX=0;entryY=0.5;entryDx=0;entryDy=0;exitX=1;exitY=0.5;exitDx=0;exitDy=0;" parent="1" source="KH_VAxzwDXU7XK9pUjr3-1" target="KH_VAxzwDXU7XK9pUjr3-18" edge="1">
          <mxGeometry relative="1" as="geometry">
            <mxPoint x="1024" y="580" as="sourcePoint" />
            <mxPoint x="1184" y="580" as="targetPoint" />
          </mxGeometry>
        </mxCell>
        <mxCell id="KH_VAxzwDXU7XK9pUjr3-24" value="T" style="text;strokeColor=none;fillColor=none;spacingLeft=4;spacingRight=4;overflow=hidden;rotatable=0;points=[[0,0.5],[1,0.5]];portConstraint=eastwest;fontSize=12;whiteSpace=wrap;html=1;" parent="1" vertex="1">
          <mxGeometry x="1287.5" y="410" width="40" height="30" as="geometry" />
        </mxCell>
        <mxCell id="KH_VAxzwDXU7XK9pUjr3-28" value="Associação" style="whiteSpace=wrap;html=1;align=center;" parent="1" vertex="1">
          <mxGeometry x="520" y="290" width="100" height="40" as="geometry" />
        </mxCell>
        <mxCell id="KH_VAxzwDXU7XK9pUjr3-29" value="Calendário" style="whiteSpace=wrap;html=1;align=center;" parent="1" vertex="1">
          <mxGeometry x="820" y="495.5" width="100" height="40" as="geometry" />
        </mxCell>
        <mxCell id="KH_VAxzwDXU7XK9pUjr3-31" value="Mandante" style="shape=rhombus;perimeter=rhombusPerimeter;whiteSpace=wrap;html=1;align=center;" parent="1" vertex="1">
          <mxGeometry x="680" y="220" width="90" height="50" as="geometry" />
        </mxCell>
        <mxCell id="KH_VAxzwDXU7XK9pUjr3-32" value="Prioridade" style="ellipse;whiteSpace=wrap;html=1;align=center;" parent="1" vertex="1">
          <mxGeometry x="1227.5" y="210" width="60" height="40" as="geometry" />
        </mxCell>
        <mxCell id="KH_VAxzwDXU7XK9pUjr3-33" value="Visitante" style="shape=rhombus;perimeter=rhombusPerimeter;whiteSpace=wrap;html=1;align=center;" parent="1" vertex="1">
          <mxGeometry x="680" y="350" width="90" height="50" as="geometry" />
        </mxCell>
        <mxCell id="KH_VAxzwDXU7XK9pUjr3-34" value="" style="endArrow=none;html=1;rounded=0;entryX=0;entryY=0.5;entryDx=0;entryDy=0;exitX=1;exitY=0.5;exitDx=0;exitDy=0;" parent="1" source="KH_VAxzwDXU7XK9pUjr3-33" target="KH_VAxzwDXU7XK9pUjr3-11" edge="1">
          <mxGeometry relative="1" as="geometry">
            <mxPoint x="950" y="580" as="sourcePoint" />
            <mxPoint x="1110" y="580" as="targetPoint" />
          </mxGeometry>
        </mxCell>
        <mxCell id="KH_VAxzwDXU7XK9pUjr3-35" value="(1,1)" style="resizable=0;html=1;whiteSpace=wrap;align=right;verticalAlign=bottom;" parent="KH_VAxzwDXU7XK9pUjr3-34" connectable="0" vertex="1">
          <mxGeometry x="1" relative="1" as="geometry">
            <mxPoint x="-20" y="25" as="offset" />
          </mxGeometry>
        </mxCell>
        <mxCell id="KH_VAxzwDXU7XK9pUjr3-36" value="" style="endArrow=none;html=1;rounded=0;entryX=0;entryY=0.5;entryDx=0;entryDy=0;exitX=1;exitY=0.5;exitDx=0;exitDy=0;" parent="1" source="KH_VAxzwDXU7XK9pUjr3-31" target="KH_VAxzwDXU7XK9pUjr3-11" edge="1">
          <mxGeometry relative="1" as="geometry">
            <mxPoint x="780" y="385" as="sourcePoint" />
            <mxPoint x="830" y="320" as="targetPoint" />
          </mxGeometry>
        </mxCell>
        <mxCell id="KH_VAxzwDXU7XK9pUjr3-37" value="(1,1)" style="resizable=0;html=1;whiteSpace=wrap;align=right;verticalAlign=bottom;" parent="KH_VAxzwDXU7XK9pUjr3-36" connectable="0" vertex="1">
          <mxGeometry x="1" relative="1" as="geometry">
            <mxPoint x="-20" as="offset" />
          </mxGeometry>
        </mxCell>
        <mxCell id="KH_VAxzwDXU7XK9pUjr3-38" value="" style="endArrow=none;html=1;rounded=0;entryX=1;entryY=0.5;entryDx=0;entryDy=0;exitX=0;exitY=0.5;exitDx=0;exitDy=0;" parent="1" source="KH_VAxzwDXU7XK9pUjr3-33" target="KH_VAxzwDXU7XK9pUjr3-28" edge="1">
          <mxGeometry relative="1" as="geometry">
            <mxPoint x="780" y="385" as="sourcePoint" />
            <mxPoint x="830" y="320" as="targetPoint" />
          </mxGeometry>
        </mxCell>
        <mxCell id="KH_VAxzwDXU7XK9pUjr3-39" value="(1,1)" style="resizable=0;html=1;whiteSpace=wrap;align=right;verticalAlign=bottom;" parent="KH_VAxzwDXU7XK9pUjr3-38" connectable="0" vertex="1">
          <mxGeometry x="1" relative="1" as="geometry">
            <mxPoint x="40" y="24" as="offset" />
          </mxGeometry>
        </mxCell>
        <mxCell id="KH_VAxzwDXU7XK9pUjr3-40" value="" style="endArrow=none;html=1;rounded=0;exitX=0;exitY=0.5;exitDx=0;exitDy=0;" parent="1" source="KH_VAxzwDXU7XK9pUjr3-31" edge="1">
          <mxGeometry relative="1" as="geometry">
            <mxPoint x="690" y="385" as="sourcePoint" />
            <mxPoint x="620" y="310" as="targetPoint" />
          </mxGeometry>
        </mxCell>
        <mxCell id="KH_VAxzwDXU7XK9pUjr3-41" value="(1,1)" style="resizable=0;html=1;whiteSpace=wrap;align=right;verticalAlign=bottom;" parent="KH_VAxzwDXU7XK9pUjr3-40" connectable="0" vertex="1">
          <mxGeometry x="1" relative="1" as="geometry">
            <mxPoint x="40" as="offset" />
          </mxGeometry>
        </mxCell>
        <mxCell id="KH_VAxzwDXU7XK9pUjr3-42" value="" style="endArrow=none;html=1;rounded=0;entryX=0.5;entryY=1;entryDx=0;entryDy=0;exitX=0.5;exitY=0;exitDx=0;exitDy=0;" parent="1" source="KH_VAxzwDXU7XK9pUjr3-1" target="KH_VAxzwDXU7XK9pUjr3-32" edge="1">
          <mxGeometry relative="1" as="geometry">
            <mxPoint x="1024" y="580" as="sourcePoint" />
            <mxPoint x="1184" y="580" as="targetPoint" />
          </mxGeometry>
        </mxCell>
        <mxCell id="KH_VAxzwDXU7XK9pUjr3-44" value="Pessoas" style="whiteSpace=wrap;html=1;align=center;" parent="1" vertex="1">
          <mxGeometry x="650" y="1044" width="100" height="40" as="geometry" />
        </mxCell>
        <mxCell id="KH_VAxzwDXU7XK9pUjr3-46" value="Nome" style="ellipse;whiteSpace=wrap;html=1;align=center;" parent="1" vertex="1">
          <mxGeometry x="750" y="1114" width="60" height="40" as="geometry" />
        </mxCell>
        <mxCell id="KH_VAxzwDXU7XK9pUjr3-48" value="CPF" style="ellipse;whiteSpace=wrap;html=1;align=center;fontStyle=4;" parent="1" vertex="1">
          <mxGeometry x="670" y="1114" width="60" height="30" as="geometry" />
        </mxCell>
        <mxCell id="KH_VAxzwDXU7XK9pUjr3-49" value="E-mail" style="ellipse;shape=doubleEllipse;margin=3;whiteSpace=wrap;html=1;align=center;" parent="1" vertex="1">
          <mxGeometry x="590" y="1109" width="60" height="40" as="geometry" />
        </mxCell>
        <mxCell id="KH_VAxzwDXU7XK9pUjr3-51" value="Endereço" style="whiteSpace=wrap;html=1;align=center;" parent="1" vertex="1">
          <mxGeometry x="290" y="840" width="100" height="40" as="geometry" />
        </mxCell>
        <mxCell id="KH_VAxzwDXU7XK9pUjr3-52" value="Reside" style="shape=rhombus;perimeter=rhombusPerimeter;whiteSpace=wrap;html=1;align=center;" parent="1" vertex="1">
          <mxGeometry x="480" y="1039" width="90" height="50" as="geometry" />
        </mxCell>
        <mxCell id="KH_VAxzwDXU7XK9pUjr3-53" value="Telefone" style="ellipse;shape=doubleEllipse;margin=3;whiteSpace=wrap;html=1;align=center;" parent="1" vertex="1">
          <mxGeometry x="560" y="970" width="60" height="40" as="geometry" />
        </mxCell>
        <mxCell id="KH_VAxzwDXU7XK9pUjr3-54" value="" style="endArrow=none;html=1;rounded=0;entryX=1;entryY=0.5;entryDx=0;entryDy=0;exitX=0;exitY=0.5;exitDx=0;exitDy=0;" parent="1" source="KH_VAxzwDXU7XK9pUjr3-52" target="KH_VAxzwDXU7XK9pUjr3-51" edge="1">
          <mxGeometry relative="1" as="geometry">
            <mxPoint x="630" y="560" as="sourcePoint" />
            <mxPoint x="790" y="560" as="targetPoint" />
          </mxGeometry>
        </mxCell>
        <mxCell id="KH_VAxzwDXU7XK9pUjr3-55" value="(1,1)" style="resizable=0;html=1;whiteSpace=wrap;align=right;verticalAlign=bottom;" parent="KH_VAxzwDXU7XK9pUjr3-54" connectable="0" vertex="1">
          <mxGeometry x="1" relative="1" as="geometry">
            <mxPoint x="31" y="-4" as="offset" />
          </mxGeometry>
        </mxCell>
        <mxCell id="KH_VAxzwDXU7XK9pUjr3-56" value="" style="endArrow=none;html=1;rounded=0;entryX=0;entryY=0.5;entryDx=0;entryDy=0;exitX=1;exitY=0.5;exitDx=0;exitDy=0;" parent="1" source="KH_VAxzwDXU7XK9pUjr3-52" target="KH_VAxzwDXU7XK9pUjr3-44" edge="1">
          <mxGeometry relative="1" as="geometry">
            <mxPoint x="630" y="764" as="sourcePoint" />
            <mxPoint x="790" y="764" as="targetPoint" />
          </mxGeometry>
        </mxCell>
        <mxCell id="KH_VAxzwDXU7XK9pUjr3-57" value="(1,N)" style="resizable=0;html=1;whiteSpace=wrap;align=right;verticalAlign=bottom;" parent="KH_VAxzwDXU7XK9pUjr3-56" connectable="0" vertex="1">
          <mxGeometry x="1" relative="1" as="geometry">
            <mxPoint x="-7" y="-2" as="offset" />
          </mxGeometry>
        </mxCell>
        <mxCell id="KH_VAxzwDXU7XK9pUjr3-58" value="Cidade" style="whiteSpace=wrap;html=1;align=center;" parent="1" vertex="1">
          <mxGeometry x="290" y="614.5" width="100" height="40" as="geometry" />
        </mxCell>
        <mxCell id="KH_VAxzwDXU7XK9pUjr3-59" value="Possui" style="shape=rhombus;perimeter=rhombusPerimeter;whiteSpace=wrap;html=1;align=center;" parent="1" vertex="1">
          <mxGeometry x="295" y="720" width="90" height="50" as="geometry" />
        </mxCell>
        <mxCell id="KH_VAxzwDXU7XK9pUjr3-60" value="Estado" style="whiteSpace=wrap;html=1;align=center;" parent="1" vertex="1">
          <mxGeometry x="290" y="390" width="100" height="40" as="geometry" />
        </mxCell>
        <mxCell id="KH_VAxzwDXU7XK9pUjr3-61" value="Possui" style="shape=rhombus;perimeter=rhombusPerimeter;whiteSpace=wrap;html=1;align=center;" parent="1" vertex="1">
          <mxGeometry x="295" y="495.5" width="90" height="50" as="geometry" />
        </mxCell>
        <mxCell id="KH_VAxzwDXU7XK9pUjr3-62" value="Nome" style="ellipse;whiteSpace=wrap;html=1;align=center;" parent="1" vertex="1">
          <mxGeometry x="180" y="390" width="60" height="40" as="geometry" />
        </mxCell>
        <mxCell id="KH_VAxzwDXU7XK9pUjr3-63" value="CEP" style="ellipse;whiteSpace=wrap;html=1;align=center;fontStyle=4;" parent="1" vertex="1">
          <mxGeometry x="200" y="845" width="60" height="30" as="geometry" />
        </mxCell>
        <mxCell id="KH_VAxzwDXU7XK9pUjr3-64" value="" style="endArrow=none;html=1;rounded=0;entryX=0;entryY=0.5;entryDx=0;entryDy=0;exitX=1;exitY=0.5;exitDx=0;exitDy=0;" parent="1" source="KH_VAxzwDXU7XK9pUjr3-63" target="KH_VAxzwDXU7XK9pUjr3-51" edge="1">
          <mxGeometry relative="1" as="geometry">
            <mxPoint x="630" y="560" as="sourcePoint" />
            <mxPoint x="790" y="560" as="targetPoint" />
          </mxGeometry>
        </mxCell>
        <mxCell id="KH_VAxzwDXU7XK9pUjr3-65" value="" style="endArrow=none;html=1;rounded=0;exitX=0.5;exitY=0;exitDx=0;exitDy=0;entryX=0.5;entryY=1;entryDx=0;entryDy=0;" parent="1" source="KH_VAxzwDXU7XK9pUjr3-59" target="KH_VAxzwDXU7XK9pUjr3-58" edge="1">
          <mxGeometry relative="1" as="geometry">
            <mxPoint x="630" y="560" as="sourcePoint" />
            <mxPoint x="790" y="560" as="targetPoint" />
          </mxGeometry>
        </mxCell>
        <mxCell id="KH_VAxzwDXU7XK9pUjr3-66" value="(1,1)" style="resizable=0;html=1;whiteSpace=wrap;align=right;verticalAlign=bottom;" parent="KH_VAxzwDXU7XK9pUjr3-65" connectable="0" vertex="1">
          <mxGeometry x="1" relative="1" as="geometry">
            <mxPoint x="30" y="21" as="offset" />
          </mxGeometry>
        </mxCell>
        <mxCell id="KH_VAxzwDXU7XK9pUjr3-68" value="" style="endArrow=none;html=1;rounded=0;exitX=0.5;exitY=1;exitDx=0;exitDy=0;entryX=0.5;entryY=0;entryDx=0;entryDy=0;" parent="1" source="KH_VAxzwDXU7XK9pUjr3-59" target="KH_VAxzwDXU7XK9pUjr3-51" edge="1">
          <mxGeometry relative="1" as="geometry">
            <mxPoint x="630" y="560" as="sourcePoint" />
            <mxPoint x="790" y="560" as="targetPoint" />
          </mxGeometry>
        </mxCell>
        <mxCell id="KH_VAxzwDXU7XK9pUjr3-69" value="(1,N)" style="resizable=0;html=1;whiteSpace=wrap;align=right;verticalAlign=bottom;" parent="KH_VAxzwDXU7XK9pUjr3-68" connectable="0" vertex="1">
          <mxGeometry x="1" relative="1" as="geometry">
            <mxPoint x="33" y="-4" as="offset" />
          </mxGeometry>
        </mxCell>
        <mxCell id="KH_VAxzwDXU7XK9pUjr3-71" value="" style="endArrow=none;html=1;rounded=0;exitX=0.5;exitY=0;exitDx=0;exitDy=0;entryX=0.5;entryY=1;entryDx=0;entryDy=0;" parent="1" source="KH_VAxzwDXU7XK9pUjr3-61" target="KH_VAxzwDXU7XK9pUjr3-60" edge="1">
          <mxGeometry relative="1" as="geometry">
            <mxPoint x="350" y="730" as="sourcePoint" />
            <mxPoint x="350" y="665" as="targetPoint" />
          </mxGeometry>
        </mxCell>
        <mxCell id="KH_VAxzwDXU7XK9pUjr3-72" value="(1,1)" style="resizable=0;html=1;whiteSpace=wrap;align=right;verticalAlign=bottom;" parent="KH_VAxzwDXU7XK9pUjr3-71" connectable="0" vertex="1">
          <mxGeometry x="1" relative="1" as="geometry">
            <mxPoint x="30" y="21" as="offset" />
          </mxGeometry>
        </mxCell>
        <mxCell id="KH_VAxzwDXU7XK9pUjr3-73" value="" style="endArrow=none;html=1;rounded=0;exitX=0.5;exitY=1;exitDx=0;exitDy=0;entryX=0.5;entryY=0;entryDx=0;entryDy=0;" parent="1" source="KH_VAxzwDXU7XK9pUjr3-61" target="KH_VAxzwDXU7XK9pUjr3-58" edge="1">
          <mxGeometry relative="1" as="geometry">
            <mxPoint x="350" y="780" as="sourcePoint" />
            <mxPoint x="350" y="850" as="targetPoint" />
          </mxGeometry>
        </mxCell>
        <mxCell id="KH_VAxzwDXU7XK9pUjr3-74" value="(1,N)" style="resizable=0;html=1;whiteSpace=wrap;align=right;verticalAlign=bottom;" parent="KH_VAxzwDXU7XK9pUjr3-73" connectable="0" vertex="1">
          <mxGeometry x="1" relative="1" as="geometry">
            <mxPoint x="33" y="-4" as="offset" />
          </mxGeometry>
        </mxCell>
        <mxCell id="KH_VAxzwDXU7XK9pUjr3-76" value="Sigla" style="ellipse;whiteSpace=wrap;html=1;align=center;fontStyle=4;" parent="1" vertex="1">
          <mxGeometry x="180" y="450" width="60" height="30" as="geometry" />
        </mxCell>
        <mxCell id="KH_VAxzwDXU7XK9pUjr3-77" value="Logradouro" style="ellipse;whiteSpace=wrap;html=1;align=center;fontSize=11;" parent="1" vertex="1">
          <mxGeometry x="200" y="780" width="60" height="40" as="geometry" />
        </mxCell>
        <mxCell id="KH_VAxzwDXU7XK9pUjr3-78" value="" style="endArrow=none;html=1;rounded=0;entryX=0;entryY=0;entryDx=0;entryDy=0;exitX=1;exitY=0.5;exitDx=0;exitDy=0;" parent="1" source="KH_VAxzwDXU7XK9pUjr3-77" target="KH_VAxzwDXU7XK9pUjr3-51" edge="1">
          <mxGeometry relative="1" as="geometry">
            <mxPoint x="270" y="870" as="sourcePoint" />
            <mxPoint x="300" y="870" as="targetPoint" />
          </mxGeometry>
        </mxCell>
        <mxCell id="KH_VAxzwDXU7XK9pUjr3-79" value="" style="endArrow=none;html=1;rounded=0;entryX=0;entryY=1;entryDx=0;entryDy=0;exitX=1;exitY=0.5;exitDx=0;exitDy=0;" parent="1" source="KH_VAxzwDXU7XK9pUjr3-76" target="KH_VAxzwDXU7XK9pUjr3-60" edge="1">
          <mxGeometry relative="1" as="geometry">
            <mxPoint x="270" y="870" as="sourcePoint" />
            <mxPoint x="300" y="870" as="targetPoint" />
          </mxGeometry>
        </mxCell>
        <mxCell id="KH_VAxzwDXU7XK9pUjr3-80" value="" style="endArrow=none;html=1;rounded=0;entryX=0;entryY=0.5;entryDx=0;entryDy=0;exitX=1;exitY=0.5;exitDx=0;exitDy=0;" parent="1" source="KH_VAxzwDXU7XK9pUjr3-62" target="KH_VAxzwDXU7XK9pUjr3-60" edge="1">
          <mxGeometry relative="1" as="geometry">
            <mxPoint x="250" y="475" as="sourcePoint" />
            <mxPoint x="300" y="440" as="targetPoint" />
          </mxGeometry>
        </mxCell>
        <mxCell id="KH_VAxzwDXU7XK9pUjr3-81" value="Realiza" style="shape=rhombus;perimeter=rhombusPerimeter;whiteSpace=wrap;html=1;align=center;" parent="1" vertex="1">
          <mxGeometry x="825" y="390" width="90" height="50" as="geometry" />
        </mxCell>
        <mxCell id="KH_VAxzwDXU7XK9pUjr3-82" value="" style="endArrow=none;html=1;rounded=0;entryX=0.5;entryY=0;entryDx=0;entryDy=0;exitX=0.5;exitY=1;exitDx=0;exitDy=0;" parent="1" source="KH_VAxzwDXU7XK9pUjr3-81" target="KH_VAxzwDXU7XK9pUjr3-29" edge="1">
          <mxGeometry relative="1" as="geometry">
            <mxPoint x="630" y="560" as="sourcePoint" />
            <mxPoint x="790" y="560" as="targetPoint" />
          </mxGeometry>
        </mxCell>
        <mxCell id="KH_VAxzwDXU7XK9pUjr3-83" value="(1,1)" style="resizable=0;html=1;whiteSpace=wrap;align=right;verticalAlign=bottom;" parent="KH_VAxzwDXU7XK9pUjr3-82" connectable="0" vertex="1">
          <mxGeometry x="1" relative="1" as="geometry">
            <mxPoint x="-4" y="-2" as="offset" />
          </mxGeometry>
        </mxCell>
        <mxCell id="KH_VAxzwDXU7XK9pUjr3-84" value="" style="endArrow=none;html=1;rounded=0;entryX=0.5;entryY=1;entryDx=0;entryDy=0;exitX=0.5;exitY=0;exitDx=0;exitDy=0;" parent="1" source="KH_VAxzwDXU7XK9pUjr3-81" target="KH_VAxzwDXU7XK9pUjr3-11" edge="1">
          <mxGeometry relative="1" as="geometry">
            <mxPoint x="630" y="560" as="sourcePoint" />
            <mxPoint x="790" y="560" as="targetPoint" />
          </mxGeometry>
        </mxCell>
        <mxCell id="KH_VAxzwDXU7XK9pUjr3-85" value="(0,N)" style="resizable=0;html=1;whiteSpace=wrap;align=right;verticalAlign=bottom;" parent="KH_VAxzwDXU7XK9pUjr3-84" connectable="0" vertex="1">
          <mxGeometry x="1" relative="1" as="geometry">
            <mxPoint x="-3" y="21" as="offset" />
          </mxGeometry>
        </mxCell>
        <mxCell id="KH_VAxzwDXU7XK9pUjr3-86" value="Torcedor" style="whiteSpace=wrap;html=1;align=center;" parent="1" vertex="1">
          <mxGeometry x="1050" y="1010" width="100" height="40" as="geometry" />
        </mxCell>
        <mxCell id="KH_VAxzwDXU7XK9pUjr3-87" value="" style="endArrow=none;html=1;rounded=0;entryX=0;entryY=0;entryDx=0;entryDy=0;exitX=1;exitY=1;exitDx=0;exitDy=0;" parent="1" source="KH_VAxzwDXU7XK9pUjr3-44" target="KH_VAxzwDXU7XK9pUjr3-46" edge="1">
          <mxGeometry relative="1" as="geometry">
            <mxPoint x="630" y="764" as="sourcePoint" />
            <mxPoint x="790" y="764" as="targetPoint" />
          </mxGeometry>
        </mxCell>
        <mxCell id="KH_VAxzwDXU7XK9pUjr3-88" value="" style="endArrow=none;html=1;rounded=0;entryX=0.5;entryY=0;entryDx=0;entryDy=0;exitX=0.5;exitY=1;exitDx=0;exitDy=0;" parent="1" source="KH_VAxzwDXU7XK9pUjr3-44" target="KH_VAxzwDXU7XK9pUjr3-48" edge="1">
          <mxGeometry relative="1" as="geometry">
            <mxPoint x="760" y="1094" as="sourcePoint" />
            <mxPoint x="769" y="1130" as="targetPoint" />
          </mxGeometry>
        </mxCell>
        <mxCell id="KH_VAxzwDXU7XK9pUjr3-89" value="" style="endArrow=none;html=1;rounded=0;entryX=1;entryY=0;entryDx=0;entryDy=0;exitX=0;exitY=1;exitDx=0;exitDy=0;" parent="1" source="KH_VAxzwDXU7XK9pUjr3-44" target="KH_VAxzwDXU7XK9pUjr3-49" edge="1">
          <mxGeometry relative="1" as="geometry">
            <mxPoint x="710" y="1094" as="sourcePoint" />
            <mxPoint x="710" y="1124" as="targetPoint" />
          </mxGeometry>
        </mxCell>
        <mxCell id="KH_VAxzwDXU7XK9pUjr3-93" value="" style="endArrow=none;html=1;rounded=0;entryX=0;entryY=0.5;entryDx=0;entryDy=0;exitX=1;exitY=1;exitDx=0;exitDy=0;exitPerimeter=0;" parent="1" source="KH_VAxzwDXU7XK9pUjr3-98" target="KH_VAxzwDXU7XK9pUjr3-86" edge="1">
          <mxGeometry relative="1" as="geometry">
            <mxPoint x="915" y="1064" as="sourcePoint" />
            <mxPoint x="960" y="1009" as="targetPoint" />
          </mxGeometry>
        </mxCell>
        <mxCell id="KH_VAxzwDXU7XK9pUjr3-95" value="" style="endArrow=none;html=1;rounded=0;entryX=1;entryY=0.5;entryDx=0;entryDy=0;exitX=0;exitY=1;exitDx=0;exitDy=0;exitPerimeter=0;" parent="1" source="KH_VAxzwDXU7XK9pUjr3-98" target="KH_VAxzwDXU7XK9pUjr3-44" edge="1">
          <mxGeometry relative="1" as="geometry">
            <mxPoint x="825" y="1064" as="sourcePoint" />
            <mxPoint x="790" y="764" as="targetPoint" />
          </mxGeometry>
        </mxCell>
        <mxCell id="KH_VAxzwDXU7XK9pUjr3-96" value="(0,N)" style="resizable=0;html=1;whiteSpace=wrap;align=right;verticalAlign=bottom;" parent="KH_VAxzwDXU7XK9pUjr3-95" connectable="0" vertex="1">
          <mxGeometry x="1" relative="1" as="geometry">
            <mxPoint x="35" y="-4" as="offset" />
          </mxGeometry>
        </mxCell>
        <mxCell id="KH_VAxzwDXU7XK9pUjr3-97" value="" style="endArrow=none;html=1;rounded=0;entryX=0;entryY=0;entryDx=0;entryDy=0;exitX=0.5;exitY=1;exitDx=0;exitDy=0;" parent="1" source="KH_VAxzwDXU7XK9pUjr3-53" target="KH_VAxzwDXU7XK9pUjr3-44" edge="1">
          <mxGeometry relative="1" as="geometry">
            <mxPoint x="630" y="764" as="sourcePoint" />
            <mxPoint x="790" y="764" as="targetPoint" />
          </mxGeometry>
        </mxCell>
        <mxCell id="KH_VAxzwDXU7XK9pUjr3-98" value="" style="verticalLabelPosition=bottom;verticalAlign=top;html=1;shape=mxgraph.basic.acute_triangle;dx=0.5;" parent="1" vertex="1">
          <mxGeometry x="838.5" y="1014" width="63" height="50" as="geometry" />
        </mxCell>
        <mxCell id="KH_VAxzwDXU7XK9pUjr3-99" value="Dono Comércio" style="whiteSpace=wrap;html=1;align=center;" parent="1" vertex="1">
          <mxGeometry x="1049" y="1065" width="100" height="40" as="geometry" />
        </mxCell>
        <mxCell id="KH_VAxzwDXU7XK9pUjr3-100" value="Jogador" style="whiteSpace=wrap;html=1;align=center;" parent="1" vertex="1">
          <mxGeometry x="1049" y="960" width="100" height="40" as="geometry" />
        </mxCell>
        <mxCell id="KH_VAxzwDXU7XK9pUjr3-101" value="Dirigente" style="whiteSpace=wrap;html=1;align=center;" parent="1" vertex="1">
          <mxGeometry x="1049" y="910" width="100" height="40" as="geometry" />
        </mxCell>
        <mxCell id="KH_VAxzwDXU7XK9pUjr3-102" value="Juiz" style="whiteSpace=wrap;html=1;align=center;" parent="1" vertex="1">
          <mxGeometry x="1050" y="860" width="100" height="40" as="geometry" />
        </mxCell>
        <mxCell id="KH_VAxzwDXU7XK9pUjr3-103" value="" style="endArrow=none;html=1;rounded=0;entryX=0;entryY=0.5;entryDx=0;entryDy=0;exitX=1;exitY=1;exitDx=0;exitDy=0;exitPerimeter=0;" parent="1" source="KH_VAxzwDXU7XK9pUjr3-98" target="KH_VAxzwDXU7XK9pUjr3-99" edge="1">
          <mxGeometry relative="1" as="geometry">
            <mxPoint x="912" y="1074" as="sourcePoint" />
            <mxPoint x="985" y="1134" as="targetPoint" />
          </mxGeometry>
        </mxCell>
        <mxCell id="KH_VAxzwDXU7XK9pUjr3-105" value="" style="endArrow=none;html=1;rounded=0;entryX=0;entryY=0.5;entryDx=0;entryDy=0;exitX=0;exitY=0;exitDx=47.25;exitDy=25;exitPerimeter=0;" parent="1" source="KH_VAxzwDXU7XK9pUjr3-98" target="KH_VAxzwDXU7XK9pUjr3-100" edge="1">
          <mxGeometry relative="1" as="geometry">
            <mxPoint x="912" y="1074" as="sourcePoint" />
            <mxPoint x="985" y="1084" as="targetPoint" />
          </mxGeometry>
        </mxCell>
        <mxCell id="KH_VAxzwDXU7XK9pUjr3-106" value="" style="endArrow=none;html=1;rounded=0;entryX=0;entryY=0.5;entryDx=0;entryDy=0;exitX=0;exitY=0;exitDx=47.25;exitDy=25;exitPerimeter=0;" parent="1" source="KH_VAxzwDXU7XK9pUjr3-98" target="KH_VAxzwDXU7XK9pUjr3-101" edge="1">
          <mxGeometry relative="1" as="geometry">
            <mxPoint x="896" y="1049" as="sourcePoint" />
            <mxPoint x="985" y="1034" as="targetPoint" />
          </mxGeometry>
        </mxCell>
        <mxCell id="KH_VAxzwDXU7XK9pUjr3-107" value="" style="endArrow=none;html=1;rounded=0;entryX=0;entryY=0.5;entryDx=0;entryDy=0;exitX=0;exitY=0;exitDx=31.5;exitDy=0;exitPerimeter=0;" parent="1" source="KH_VAxzwDXU7XK9pUjr3-98" target="KH_VAxzwDXU7XK9pUjr3-102" edge="1">
          <mxGeometry relative="1" as="geometry">
            <mxPoint x="896" y="1049" as="sourcePoint" />
            <mxPoint x="985" y="984" as="targetPoint" />
          </mxGeometry>
        </mxCell>
        <mxCell id="KH_VAxzwDXU7XK9pUjr3-109" value="Dirige" style="shape=rhombus;perimeter=rhombusPerimeter;whiteSpace=wrap;html=1;align=center;" parent="1" vertex="1">
          <mxGeometry x="1212.5" y="869" width="90" height="50" as="geometry" />
        </mxCell>
        <mxCell id="KH_VAxzwDXU7XK9pUjr3-110" value="Patrocinador" style="whiteSpace=wrap;html=1;align=center;" parent="1" vertex="1">
          <mxGeometry x="1050" y="1177" width="100" height="40" as="geometry" />
        </mxCell>
        <mxCell id="KH_VAxzwDXU7XK9pUjr3-111" value="" style="endArrow=none;html=1;rounded=0;entryX=0;entryY=0.5;entryDx=0;entryDy=0;exitX=1;exitY=1;exitDx=0;exitDy=0;exitPerimeter=0;" parent="1" source="KH_VAxzwDXU7XK9pUjr3-98" target="KH_VAxzwDXU7XK9pUjr3-110" edge="1">
          <mxGeometry relative="1" as="geometry">
            <mxPoint x="900" y="1074" as="sourcePoint" />
            <mxPoint x="986" y="934" as="targetPoint" />
          </mxGeometry>
        </mxCell>
        <mxCell id="KH_VAxzwDXU7XK9pUjr3-112" value="Dirige" style="shape=rhombus;perimeter=rhombusPerimeter;whiteSpace=wrap;html=1;align=center;" parent="1" vertex="1">
          <mxGeometry x="1339" y="925" width="90" height="50" as="geometry" />
        </mxCell>
        <mxCell id="KH_VAxzwDXU7XK9pUjr3-113" value="" style="endArrow=none;html=1;rounded=0;entryX=0.5;entryY=1;entryDx=0;entryDy=0;exitX=0.5;exitY=0;exitDx=0;exitDy=0;" parent="1" source="KH_VAxzwDXU7XK9pUjr3-109" target="KH_VAxzwDXU7XK9pUjr3-4" edge="1">
          <mxGeometry relative="1" as="geometry">
            <mxPoint x="704" y="690" as="sourcePoint" />
            <mxPoint x="1257.5" y="690" as="targetPoint" />
          </mxGeometry>
        </mxCell>
        <mxCell id="KH_VAxzwDXU7XK9pUjr3-114" value="(1,N)" style="resizable=0;html=1;whiteSpace=wrap;align=right;verticalAlign=bottom;" parent="KH_VAxzwDXU7XK9pUjr3-113" connectable="0" vertex="1">
          <mxGeometry x="1" relative="1" as="geometry">
            <mxPoint x="29" y="23" as="offset" />
          </mxGeometry>
        </mxCell>
        <mxCell id="KH_VAxzwDXU7XK9pUjr3-115" value="" style="endArrow=none;html=1;rounded=0;entryX=1;entryY=0.5;entryDx=0;entryDy=0;exitX=0.5;exitY=1;exitDx=0;exitDy=0;edgeStyle=orthogonalEdgeStyle;" parent="1" source="KH_VAxzwDXU7XK9pUjr3-109" target="KH_VAxzwDXU7XK9pUjr3-101" edge="1">
          <mxGeometry relative="1" as="geometry">
            <mxPoint x="1268" y="904" as="sourcePoint" />
            <mxPoint x="1268" y="774" as="targetPoint" />
          </mxGeometry>
        </mxCell>
        <mxCell id="KH_VAxzwDXU7XK9pUjr3-116" value="(1,N)" style="resizable=0;html=1;whiteSpace=wrap;align=right;verticalAlign=bottom;" parent="KH_VAxzwDXU7XK9pUjr3-115" connectable="0" vertex="1">
          <mxGeometry x="1" relative="1" as="geometry">
            <mxPoint x="31" y="-3" as="offset" />
          </mxGeometry>
        </mxCell>
        <mxCell id="KH_VAxzwDXU7XK9pUjr3-117" value="" style="endArrow=none;html=1;rounded=0;entryX=0.5;entryY=1;entryDx=0;entryDy=0;exitX=0.5;exitY=0;exitDx=0;exitDy=0;" parent="1" source="KH_VAxzwDXU7XK9pUjr3-112" target="KH_VAxzwDXU7XK9pUjr3-5" edge="1">
          <mxGeometry relative="1" as="geometry">
            <mxPoint x="1268" y="830" as="sourcePoint" />
            <mxPoint x="1384" y="690" as="targetPoint" />
          </mxGeometry>
        </mxCell>
        <mxCell id="KH_VAxzwDXU7XK9pUjr3-118" value="(1,N)" style="resizable=0;html=1;whiteSpace=wrap;align=right;verticalAlign=bottom;" parent="KH_VAxzwDXU7XK9pUjr3-117" connectable="0" vertex="1">
          <mxGeometry x="1" relative="1" as="geometry">
            <mxPoint x="30" y="23" as="offset" />
          </mxGeometry>
        </mxCell>
        <mxCell id="KH_VAxzwDXU7XK9pUjr3-122" value="" style="endArrow=none;html=1;rounded=0;entryX=1;entryY=1;entryDx=0;entryDy=0;exitX=0;exitY=0.5;exitDx=0;exitDy=0;" parent="1" source="KH_VAxzwDXU7XK9pUjr3-112" target="KH_VAxzwDXU7XK9pUjr3-101" edge="1">
          <mxGeometry relative="1" as="geometry">
            <mxPoint x="704" y="764" as="sourcePoint" />
            <mxPoint x="864" y="764" as="targetPoint" />
          </mxGeometry>
        </mxCell>
        <mxCell id="KH_VAxzwDXU7XK9pUjr3-123" value="(1,N)" style="resizable=0;html=1;whiteSpace=wrap;align=right;verticalAlign=bottom;" parent="KH_VAxzwDXU7XK9pUjr3-122" connectable="0" vertex="1">
          <mxGeometry x="1" relative="1" as="geometry">
            <mxPoint x="33" y="19" as="offset" />
          </mxGeometry>
        </mxCell>
        <mxCell id="KH_VAxzwDXU7XK9pUjr3-125" value="Tem" style="shape=rhombus;perimeter=rhombusPerimeter;whiteSpace=wrap;html=1;align=center;" parent="1" vertex="1">
          <mxGeometry x="610" y="764" width="90" height="50" as="geometry" />
        </mxCell>
        <mxCell id="KH_VAxzwDXU7XK9pUjr3-126" value="" style="endArrow=none;html=1;rounded=0;entryX=0.5;entryY=0;entryDx=0;entryDy=0;exitX=0.5;exitY=1;exitDx=0;exitDy=0;edgeStyle=orthogonalEdgeStyle;" parent="1" source="KH_VAxzwDXU7XK9pUjr3-125" target="KH_VAxzwDXU7XK9pUjr3-44" edge="1">
          <mxGeometry relative="1" as="geometry">
            <mxPoint x="630" y="764" as="sourcePoint" />
            <mxPoint x="790" y="764" as="targetPoint" />
          </mxGeometry>
        </mxCell>
        <mxCell id="KH_VAxzwDXU7XK9pUjr3-127" value="(1,N)" style="resizable=0;html=1;whiteSpace=wrap;align=right;verticalAlign=bottom;" parent="KH_VAxzwDXU7XK9pUjr3-126" connectable="0" vertex="1">
          <mxGeometry x="1" relative="1" as="geometry">
            <mxPoint x="30" y="-3" as="offset" />
          </mxGeometry>
        </mxCell>
        <mxCell id="KH_VAxzwDXU7XK9pUjr3-128" value="" style="endArrow=none;html=1;rounded=0;entryX=1;entryY=0.5;entryDx=0;entryDy=0;exitX=0.5;exitY=0;exitDx=0;exitDy=0;" parent="1" source="KH_VAxzwDXU7XK9pUjr3-125" target="KH_VAxzwDXU7XK9pUjr3-160" edge="1">
          <mxGeometry relative="1" as="geometry">
            <mxPoint x="665" y="824" as="sourcePoint" />
            <mxPoint x="710" y="1054" as="targetPoint" />
          </mxGeometry>
        </mxCell>
        <mxCell id="KH_VAxzwDXU7XK9pUjr3-129" value="(1,N)" style="resizable=0;html=1;whiteSpace=wrap;align=right;verticalAlign=bottom;" parent="KH_VAxzwDXU7XK9pUjr3-128" connectable="0" vertex="1">
          <mxGeometry x="1" relative="1" as="geometry">
            <mxPoint x="30" y="-44" as="offset" />
          </mxGeometry>
        </mxCell>
        <mxCell id="KH_VAxzwDXU7XK9pUjr3-131" value="Nome" style="ellipse;whiteSpace=wrap;html=1;align=center;" parent="1" vertex="1">
          <mxGeometry x="495" y="170" width="60" height="40" as="geometry" />
        </mxCell>
        <mxCell id="KH_VAxzwDXU7XK9pUjr3-132" value="Brasão" style="ellipse;whiteSpace=wrap;html=1;align=center;" parent="1" vertex="1">
          <mxGeometry x="460" y="210" width="60" height="40" as="geometry" />
        </mxCell>
        <mxCell id="KH_VAxzwDXU7XK9pUjr3-133" value="Camisa 1" style="ellipse;whiteSpace=wrap;html=1;align=center;" parent="1" vertex="1">
          <mxGeometry x="450" y="250" width="60" height="40" as="geometry" />
        </mxCell>
        <mxCell id="KH_VAxzwDXU7XK9pUjr3-134" value="Camisa 2" style="ellipse;whiteSpace=wrap;html=1;align=center;" parent="1" vertex="1">
          <mxGeometry x="450" y="335" width="60" height="40" as="geometry" />
        </mxCell>
        <mxCell id="KH_VAxzwDXU7XK9pUjr3-135" value="Bandeira" style="ellipse;whiteSpace=wrap;html=1;align=center;" parent="1" vertex="1">
          <mxGeometry x="450" y="380" width="60" height="40" as="geometry" />
        </mxCell>
        <mxCell id="KH_VAxzwDXU7XK9pUjr3-136" value="Campos" style="whiteSpace=wrap;html=1;align=center;" parent="1" vertex="1">
          <mxGeometry x="790" y="784" width="100" height="40" as="geometry" />
        </mxCell>
        <mxCell id="KH_VAxzwDXU7XK9pUjr3-137" value="Pertence" style="shape=rhombus;perimeter=rhombusPerimeter;whiteSpace=wrap;html=1;align=center;" parent="1" vertex="1">
          <mxGeometry x="1044" y="779" width="90" height="50" as="geometry" />
        </mxCell>
        <mxCell id="KH_VAxzwDXU7XK9pUjr3-138" value="Pertence" style="shape=rhombus;perimeter=rhombusPerimeter;whiteSpace=wrap;html=1;align=center;" parent="1" vertex="1">
          <mxGeometry x="700" y="470" width="90" height="50" as="geometry" />
        </mxCell>
        <mxCell id="KH_VAxzwDXU7XK9pUjr3-139" value="" style="endArrow=none;html=1;rounded=0;entryX=0.25;entryY=1;entryDx=0;entryDy=0;exitX=1;exitY=0.5;exitDx=0;exitDy=0;edgeStyle=orthogonalEdgeStyle;" parent="1" source="KH_VAxzwDXU7XK9pUjr3-137" target="KH_VAxzwDXU7XK9pUjr3-4" edge="1">
          <mxGeometry relative="1" as="geometry">
            <mxPoint x="704" y="690" as="sourcePoint" />
            <mxPoint x="1232.5" y="690" as="targetPoint" />
          </mxGeometry>
        </mxCell>
        <mxCell id="KH_VAxzwDXU7XK9pUjr3-140" value="(1,1)" style="resizable=0;html=1;whiteSpace=wrap;align=right;verticalAlign=bottom;" parent="KH_VAxzwDXU7XK9pUjr3-139" connectable="0" vertex="1">
          <mxGeometry x="1" relative="1" as="geometry">
            <mxPoint x="-2" y="54" as="offset" />
          </mxGeometry>
        </mxCell>
        <mxCell id="KH_VAxzwDXU7XK9pUjr3-141" value="" style="endArrow=none;html=1;rounded=0;entryX=1;entryY=0.5;entryDx=0;entryDy=0;exitX=0;exitY=0.5;exitDx=0;exitDy=0;" parent="1" source="KH_VAxzwDXU7XK9pUjr3-137" target="KH_VAxzwDXU7XK9pUjr3-136" edge="1">
          <mxGeometry relative="1" as="geometry">
            <mxPoint x="630" y="764" as="sourcePoint" />
            <mxPoint x="790" y="764" as="targetPoint" />
          </mxGeometry>
        </mxCell>
        <mxCell id="KH_VAxzwDXU7XK9pUjr3-142" value="(0,N)" style="resizable=0;html=1;whiteSpace=wrap;align=right;verticalAlign=bottom;" parent="KH_VAxzwDXU7XK9pUjr3-141" connectable="0" vertex="1">
          <mxGeometry x="1" relative="1" as="geometry">
            <mxPoint x="30" y="16" as="offset" />
          </mxGeometry>
        </mxCell>
        <mxCell id="KH_VAxzwDXU7XK9pUjr3-143" value="" style="endArrow=none;html=1;rounded=0;entryX=1;entryY=1;entryDx=0;entryDy=0;exitX=0;exitY=0.5;exitDx=0;exitDy=0;edgeStyle=orthogonalEdgeStyle;" parent="1" source="KH_VAxzwDXU7XK9pUjr3-138" target="KH_VAxzwDXU7XK9pUjr3-28" edge="1">
          <mxGeometry relative="1" as="geometry">
            <mxPoint x="1070" y="610" as="sourcePoint" />
            <mxPoint x="1169" y="570" as="targetPoint" />
            <Array as="points">
              <mxPoint x="670" y="495" />
              <mxPoint x="670" y="400" />
              <mxPoint x="620" y="400" />
            </Array>
          </mxGeometry>
        </mxCell>
        <mxCell id="KH_VAxzwDXU7XK9pUjr3-144" value="(1,1)" style="resizable=0;html=1;whiteSpace=wrap;align=right;verticalAlign=bottom;" parent="KH_VAxzwDXU7XK9pUjr3-143" connectable="0" vertex="1">
          <mxGeometry x="1" relative="1" as="geometry">
            <mxPoint x="27" y="42" as="offset" />
          </mxGeometry>
        </mxCell>
        <mxCell id="KH_VAxzwDXU7XK9pUjr3-145" value="" style="endArrow=none;html=1;rounded=0;entryX=0;entryY=0.5;entryDx=0;entryDy=0;exitX=0.5;exitY=1;exitDx=0;exitDy=0;edgeStyle=orthogonalEdgeStyle;" parent="1" source="KH_VAxzwDXU7XK9pUjr3-138" target="KH_VAxzwDXU7XK9pUjr3-136" edge="1">
          <mxGeometry relative="1" as="geometry">
            <mxPoint x="745" y="650" as="sourcePoint" />
            <mxPoint x="900" y="740" as="targetPoint" />
          </mxGeometry>
        </mxCell>
        <mxCell id="KH_VAxzwDXU7XK9pUjr3-146" value="(0,N)" style="resizable=0;html=1;whiteSpace=wrap;align=right;verticalAlign=bottom;" parent="KH_VAxzwDXU7XK9pUjr3-145" connectable="0" vertex="1">
          <mxGeometry x="1" relative="1" as="geometry">
            <mxPoint x="-4" y="-3" as="offset" />
          </mxGeometry>
        </mxCell>
        <mxCell id="KH_VAxzwDXU7XK9pUjr3-147" value="Endereço" style="ellipse;whiteSpace=wrap;html=1;align=center;" parent="1" vertex="1">
          <mxGeometry x="760" y="864" width="60" height="40" as="geometry" />
        </mxCell>
        <mxCell id="KH_VAxzwDXU7XK9pUjr3-148" value="Código" style="ellipse;whiteSpace=wrap;html=1;align=center;fontStyle=4;" parent="1" vertex="1">
          <mxGeometry x="838.5" y="879" width="60" height="30" as="geometry" />
        </mxCell>
        <mxCell id="KH_VAxzwDXU7XK9pUjr3-149" value="" style="endArrow=none;html=1;rounded=0;entryX=0.75;entryY=1;entryDx=0;entryDy=0;exitX=0.5;exitY=0;exitDx=0;exitDy=0;" parent="1" source="KH_VAxzwDXU7XK9pUjr3-148" target="KH_VAxzwDXU7XK9pUjr3-136" edge="1">
          <mxGeometry relative="1" as="geometry">
            <mxPoint x="630" y="764" as="sourcePoint" />
            <mxPoint x="790" y="764" as="targetPoint" />
          </mxGeometry>
        </mxCell>
        <mxCell id="KH_VAxzwDXU7XK9pUjr3-150" value="" style="endArrow=none;html=1;rounded=0;entryX=0;entryY=1;entryDx=0;entryDy=0;exitX=0.5;exitY=0;exitDx=0;exitDy=0;" parent="1" source="KH_VAxzwDXU7XK9pUjr3-147" target="KH_VAxzwDXU7XK9pUjr3-136" edge="1">
          <mxGeometry relative="1" as="geometry">
            <mxPoint x="870" y="874" as="sourcePoint" />
            <mxPoint x="875" y="834" as="targetPoint" />
          </mxGeometry>
        </mxCell>
        <mxCell id="KH_VAxzwDXU7XK9pUjr3-151" value="" style="endArrow=none;html=1;rounded=0;entryX=1;entryY=0.5;entryDx=0;entryDy=0;exitX=0.25;exitY=1;exitDx=0;exitDy=0;" parent="1" source="KH_VAxzwDXU7XK9pUjr3-28" target="KH_VAxzwDXU7XK9pUjr3-135" edge="1">
          <mxGeometry relative="1" as="geometry">
            <mxPoint x="880" y="680" as="sourcePoint" />
            <mxPoint x="885" y="640" as="targetPoint" />
          </mxGeometry>
        </mxCell>
        <mxCell id="KH_VAxzwDXU7XK9pUjr3-152" value="" style="endArrow=none;html=1;rounded=0;entryX=1;entryY=0.5;entryDx=0;entryDy=0;exitX=0;exitY=1;exitDx=0;exitDy=0;" parent="1" source="KH_VAxzwDXU7XK9pUjr3-28" target="KH_VAxzwDXU7XK9pUjr3-134" edge="1">
          <mxGeometry relative="1" as="geometry">
            <mxPoint x="555" y="340" as="sourcePoint" />
            <mxPoint x="520" y="410" as="targetPoint" />
          </mxGeometry>
        </mxCell>
        <mxCell id="KH_VAxzwDXU7XK9pUjr3-153" value="" style="endArrow=none;html=1;rounded=0;entryX=1;entryY=0.5;entryDx=0;entryDy=0;exitX=0;exitY=0.5;exitDx=0;exitDy=0;" parent="1" source="KH_VAxzwDXU7XK9pUjr3-28" target="KH_VAxzwDXU7XK9pUjr3-133" edge="1">
          <mxGeometry relative="1" as="geometry">
            <mxPoint x="530" y="340" as="sourcePoint" />
            <mxPoint x="520" y="365" as="targetPoint" />
          </mxGeometry>
        </mxCell>
        <mxCell id="KH_VAxzwDXU7XK9pUjr3-154" value="" style="endArrow=none;html=1;rounded=0;entryX=1;entryY=0.5;entryDx=0;entryDy=0;exitX=0;exitY=0;exitDx=0;exitDy=0;" parent="1" source="KH_VAxzwDXU7XK9pUjr3-28" target="KH_VAxzwDXU7XK9pUjr3-132" edge="1">
          <mxGeometry relative="1" as="geometry">
            <mxPoint x="530" y="320" as="sourcePoint" />
            <mxPoint x="520" y="315" as="targetPoint" />
          </mxGeometry>
        </mxCell>
        <mxCell id="KH_VAxzwDXU7XK9pUjr3-155" value="" style="endArrow=none;html=1;rounded=0;entryX=0.617;entryY=1.075;entryDx=0;entryDy=0;exitX=0.25;exitY=0;exitDx=0;exitDy=0;entryPerimeter=0;" parent="1" source="KH_VAxzwDXU7XK9pUjr3-28" target="KH_VAxzwDXU7XK9pUjr3-131" edge="1">
          <mxGeometry relative="1" as="geometry">
            <mxPoint x="530" y="300" as="sourcePoint" />
            <mxPoint x="520" y="270" as="targetPoint" />
          </mxGeometry>
        </mxCell>
        <mxCell id="KH_VAxzwDXU7XK9pUjr3-157" value="" style="endArrow=none;html=1;rounded=0;exitX=0.5;exitY=0;exitDx=0;exitDy=0;" parent="1" source="KH_VAxzwDXU7XK9pUjr3-28" target="KH_VAxzwDXU7XK9pUjr3-171" edge="1">
          <mxGeometry relative="1" as="geometry">
            <mxPoint x="555" y="300" as="sourcePoint" />
            <mxPoint x="590" y="220" as="targetPoint" />
          </mxGeometry>
        </mxCell>
        <mxCell id="KH_VAxzwDXU7XK9pUjr3-159" value="Pertence" style="shape=rhombus;perimeter=rhombusPerimeter;whiteSpace=wrap;html=1;align=center;" parent="1" vertex="1">
          <mxGeometry x="340" y="285" width="90" height="50" as="geometry" />
        </mxCell>
        <mxCell id="KH_VAxzwDXU7XK9pUjr3-160" value="Time" style="whiteSpace=wrap;html=1;align=center;" parent="1" vertex="1">
          <mxGeometry x="430" y="744" width="100" height="40" as="geometry" />
        </mxCell>
        <mxCell id="KH_VAxzwDXU7XK9pUjr3-161" value="" style="endArrow=none;html=1;rounded=0;entryX=0;entryY=0.5;entryDx=0;entryDy=0;exitX=1;exitY=0.5;exitDx=0;exitDy=0;" parent="1" source="KH_VAxzwDXU7XK9pUjr3-159" target="KH_VAxzwDXU7XK9pUjr3-28" edge="1">
          <mxGeometry relative="1" as="geometry">
            <mxPoint x="880" y="450" as="sourcePoint" />
            <mxPoint x="880" y="506" as="targetPoint" />
          </mxGeometry>
        </mxCell>
        <mxCell id="KH_VAxzwDXU7XK9pUjr3-162" value="(1,1)" style="resizable=0;html=1;whiteSpace=wrap;align=right;verticalAlign=bottom;" parent="KH_VAxzwDXU7XK9pUjr3-161" connectable="0" vertex="1">
          <mxGeometry x="1" relative="1" as="geometry">
            <mxPoint x="-4" y="-2" as="offset" />
          </mxGeometry>
        </mxCell>
        <mxCell id="KH_VAxzwDXU7XK9pUjr3-164" value="Divisões" style="ellipse;shape=doubleEllipse;margin=3;whiteSpace=wrap;html=1;align=center;" parent="1" vertex="1">
          <mxGeometry x="450" y="824" width="60" height="40" as="geometry" />
        </mxCell>
        <mxCell id="KH_VAxzwDXU7XK9pUjr3-165" value="" style="endArrow=none;html=1;rounded=0;entryX=0.5;entryY=0;entryDx=0;entryDy=0;exitX=0.5;exitY=1;exitDx=0;exitDy=0;" parent="1" source="KH_VAxzwDXU7XK9pUjr3-160" target="KH_VAxzwDXU7XK9pUjr3-164" edge="1">
          <mxGeometry relative="1" as="geometry">
            <mxPoint x="660" y="1094" as="sourcePoint" />
            <mxPoint x="651" y="1125" as="targetPoint" />
          </mxGeometry>
        </mxCell>
        <mxCell id="KH_VAxzwDXU7XK9pUjr3-166" value="" style="endArrow=none;html=1;rounded=0;entryX=0.5;entryY=0;entryDx=0;entryDy=0;exitX=0.5;exitY=1;exitDx=0;exitDy=0;edgeStyle=orthogonalEdgeStyle;" parent="1" source="KH_VAxzwDXU7XK9pUjr3-159" target="KH_VAxzwDXU7XK9pUjr3-160" edge="1">
          <mxGeometry relative="1" as="geometry">
            <mxPoint x="440" y="320" as="sourcePoint" />
            <mxPoint x="530" y="320" as="targetPoint" />
            <Array as="points">
              <mxPoint x="420" y="335" />
              <mxPoint x="420" y="450" />
              <mxPoint x="480" y="450" />
            </Array>
          </mxGeometry>
        </mxCell>
        <mxCell id="KH_VAxzwDXU7XK9pUjr3-167" value="(1,N)" style="resizable=0;html=1;whiteSpace=wrap;align=right;verticalAlign=bottom;" parent="KH_VAxzwDXU7XK9pUjr3-166" connectable="0" vertex="1">
          <mxGeometry x="1" relative="1" as="geometry">
            <mxPoint x="-4" y="-2" as="offset" />
          </mxGeometry>
        </mxCell>
        <mxCell id="KH_VAxzwDXU7XK9pUjr3-168" value="Código" style="ellipse;whiteSpace=wrap;html=1;align=center;fontStyle=4;" parent="1" vertex="1">
          <mxGeometry x="386" y="654.5" width="60" height="30" as="geometry" />
        </mxCell>
        <mxCell id="KH_VAxzwDXU7XK9pUjr3-169" value="" style="endArrow=none;html=1;rounded=0;entryX=0.5;entryY=1;entryDx=0;entryDy=0;exitX=0;exitY=0;exitDx=0;exitDy=0;" parent="1" source="KH_VAxzwDXU7XK9pUjr3-160" target="KH_VAxzwDXU7XK9pUjr3-168" edge="1">
          <mxGeometry relative="1" as="geometry">
            <mxPoint x="630" y="560" as="sourcePoint" />
            <mxPoint x="790" y="560" as="targetPoint" />
          </mxGeometry>
        </mxCell>
        <mxCell id="KH_VAxzwDXU7XK9pUjr3-171" value="Código" style="ellipse;whiteSpace=wrap;html=1;align=center;fontStyle=4;" parent="1" vertex="1">
          <mxGeometry x="550" y="230" width="60" height="30" as="geometry" />
        </mxCell>
        <mxCell id="KH_VAxzwDXU7XK9pUjr3-173" value="Empresa" style="whiteSpace=wrap;html=1;align=center;" parent="1" vertex="1">
          <mxGeometry x="1381" y="1177" width="100" height="40" as="geometry" />
        </mxCell>
        <mxCell id="KH_VAxzwDXU7XK9pUjr3-174" value="Possui" style="shape=rhombus;perimeter=rhombusPerimeter;whiteSpace=wrap;html=1;align=center;" parent="1" vertex="1">
          <mxGeometry x="1227.5" y="1171" width="90" height="50" as="geometry" />
        </mxCell>
        <mxCell id="KH_VAxzwDXU7XK9pUjr3-175" value="" style="endArrow=none;html=1;rounded=0;entryX=0;entryY=0.5;entryDx=0;entryDy=0;exitX=1;exitY=0.5;exitDx=0;exitDy=0;" parent="1" target="KH_VAxzwDXU7XK9pUjr3-173" edge="1">
          <mxGeometry relative="1" as="geometry">
            <mxPoint x="1317.5" y="1197" as="sourcePoint" />
            <mxPoint x="1357.5" y="1467" as="targetPoint" />
          </mxGeometry>
        </mxCell>
        <mxCell id="KH_VAxzwDXU7XK9pUjr3-176" value="(1,1)" style="resizable=0;html=1;whiteSpace=wrap;align=right;verticalAlign=bottom;" parent="KH_VAxzwDXU7XK9pUjr3-175" connectable="0" vertex="1">
          <mxGeometry x="1" relative="1" as="geometry">
            <mxPoint x="-3" as="offset" />
          </mxGeometry>
        </mxCell>
        <mxCell id="KH_VAxzwDXU7XK9pUjr3-177" value="" style="endArrow=none;html=1;rounded=0;entryX=1;entryY=0.5;entryDx=0;entryDy=0;exitX=0;exitY=0.5;exitDx=0;exitDy=0;" parent="1" target="KH_VAxzwDXU7XK9pUjr3-110" edge="1">
          <mxGeometry relative="1" as="geometry">
            <mxPoint x="1227.5" y="1197" as="sourcePoint" />
            <mxPoint x="1391" y="1207" as="targetPoint" />
          </mxGeometry>
        </mxCell>
        <mxCell id="KH_VAxzwDXU7XK9pUjr3-178" value="(1,1)" style="resizable=0;html=1;whiteSpace=wrap;align=right;verticalAlign=bottom;" parent="KH_VAxzwDXU7XK9pUjr3-177" connectable="0" vertex="1">
          <mxGeometry x="1" relative="1" as="geometry">
            <mxPoint x="33" y="-2" as="offset" />
          </mxGeometry>
        </mxCell>
        <mxCell id="FlwPuBfu0Ugeqf5Iud9r-2" value="Dirige" style="shape=rhombus;perimeter=rhombusPerimeter;whiteSpace=wrap;html=1;align=center;" parent="1" vertex="1">
          <mxGeometry x="1339" y="989" width="90" height="50" as="geometry" />
        </mxCell>
        <mxCell id="FlwPuBfu0Ugeqf5Iud9r-3" value="Possui" style="shape=rhombus;perimeter=rhombusPerimeter;whiteSpace=wrap;html=1;align=center;" parent="1" vertex="1">
          <mxGeometry x="1227.5" y="1049" width="90" height="50" as="geometry" />
        </mxCell>
        <mxCell id="FlwPuBfu0Ugeqf5Iud9r-4" value="" style="endArrow=none;html=1;rounded=0;edgeStyle=orthogonalEdgeStyle;" parent="1" source="FlwPuBfu0Ugeqf5Iud9r-3" target="KH_VAxzwDXU7XK9pUjr3-99" edge="1">
          <mxGeometry width="50" height="50" relative="1" as="geometry">
            <mxPoint x="1254" y="1014" as="sourcePoint" />
            <mxPoint x="1304" y="964" as="targetPoint" />
          </mxGeometry>
        </mxCell>
        <mxCell id="FlwPuBfu0Ugeqf5Iud9r-5" value="" style="endArrow=none;html=1;rounded=0;edgeStyle=orthogonalEdgeStyle;" parent="1" source="KH_VAxzwDXU7XK9pUjr3-173" target="FlwPuBfu0Ugeqf5Iud9r-3" edge="1">
          <mxGeometry width="50" height="50" relative="1" as="geometry">
            <mxPoint x="1254" y="1014" as="sourcePoint" />
            <mxPoint x="1304" y="964" as="targetPoint" />
            <Array as="points">
              <mxPoint x="1431" y="1084" />
            </Array>
          </mxGeometry>
        </mxCell>
        <mxCell id="FlwPuBfu0Ugeqf5Iud9r-6" value="(1,1)" style="resizable=0;html=1;whiteSpace=wrap;align=right;verticalAlign=bottom;" parent="1" connectable="0" vertex="1">
          <mxGeometry x="1180" y="1084" as="geometry" />
        </mxCell>
        <mxCell id="FlwPuBfu0Ugeqf5Iud9r-7" value="(1,1)" style="resizable=0;html=1;whiteSpace=wrap;align=right;verticalAlign=bottom;" parent="1" connectable="0" vertex="1">
          <mxGeometry x="1461" y="1175" as="geometry" />
        </mxCell>
        <mxCell id="FlwPuBfu0Ugeqf5Iud9r-8" value="Nome" style="ellipse;whiteSpace=wrap;html=1;align=center;" parent="1" vertex="1">
          <mxGeometry x="1307.5" y="1247" width="60" height="40" as="geometry" />
        </mxCell>
        <mxCell id="FlwPuBfu0Ugeqf5Iud9r-9" value="Endereço" style="ellipse;whiteSpace=wrap;html=1;align=center;" parent="1" vertex="1">
          <mxGeometry x="1374" y="1247" width="60" height="40" as="geometry" />
        </mxCell>
        <mxCell id="FlwPuBfu0Ugeqf5Iud9r-10" value="&lt;u&gt;CNPJ&lt;/u&gt;" style="ellipse;whiteSpace=wrap;html=1;align=center;" parent="1" vertex="1">
          <mxGeometry x="1524" y="1247" width="60" height="40" as="geometry" />
        </mxCell>
        <mxCell id="FlwPuBfu0Ugeqf5Iud9r-12" value="Telefone" style="ellipse;shape=doubleEllipse;margin=3;whiteSpace=wrap;html=1;align=center;" parent="1" vertex="1">
          <mxGeometry x="1444" y="1247" width="67" height="40" as="geometry" />
        </mxCell>
        <mxCell id="FlwPuBfu0Ugeqf5Iud9r-13" value="" style="endArrow=none;html=1;rounded=0;" parent="1" source="FlwPuBfu0Ugeqf5Iud9r-8" target="KH_VAxzwDXU7XK9pUjr3-173" edge="1">
          <mxGeometry relative="1" as="geometry">
            <mxPoint x="1204" y="1157" as="sourcePoint" />
            <mxPoint x="1364" y="1157" as="targetPoint" />
          </mxGeometry>
        </mxCell>
        <mxCell id="FlwPuBfu0Ugeqf5Iud9r-14" value="" style="endArrow=none;html=1;rounded=0;" parent="1" source="FlwPuBfu0Ugeqf5Iud9r-9" target="KH_VAxzwDXU7XK9pUjr3-173" edge="1">
          <mxGeometry relative="1" as="geometry">
            <mxPoint x="1204" y="1157" as="sourcePoint" />
            <mxPoint x="1364" y="1157" as="targetPoint" />
          </mxGeometry>
        </mxCell>
        <mxCell id="FlwPuBfu0Ugeqf5Iud9r-15" value="" style="endArrow=none;html=1;rounded=0;" parent="1" source="FlwPuBfu0Ugeqf5Iud9r-12" target="KH_VAxzwDXU7XK9pUjr3-173" edge="1">
          <mxGeometry relative="1" as="geometry">
            <mxPoint x="1204" y="1157" as="sourcePoint" />
            <mxPoint x="1364" y="1157" as="targetPoint" />
          </mxGeometry>
        </mxCell>
        <mxCell id="FlwPuBfu0Ugeqf5Iud9r-16" value="" style="endArrow=none;html=1;rounded=0;" parent="1" source="FlwPuBfu0Ugeqf5Iud9r-10" target="KH_VAxzwDXU7XK9pUjr3-173" edge="1">
          <mxGeometry relative="1" as="geometry">
            <mxPoint x="1204" y="1157" as="sourcePoint" />
            <mxPoint x="1364" y="1157" as="targetPoint" />
          </mxGeometry>
        </mxCell>
        <mxCell id="FlwPuBfu0Ugeqf5Iud9r-17" value="T" style="resizable=0;html=1;whiteSpace=wrap;align=right;verticalAlign=bottom;" parent="1" connectable="0" vertex="1">
          <mxGeometry x="840" y="1044" as="geometry">
            <mxPoint x="-3" y="13" as="offset" />
          </mxGeometry>
        </mxCell>
        <mxCell id="FlwPuBfu0Ugeqf5Iud9r-19" value="Número" style="ellipse;whiteSpace=wrap;html=1;align=center;fontSize=11;" parent="1" vertex="1">
          <mxGeometry x="200" y="885" width="60" height="40" as="geometry" />
        </mxCell>
        <mxCell id="FlwPuBfu0Ugeqf5Iud9r-20" value="" style="endArrow=none;html=1;rounded=0;" parent="1" source="FlwPuBfu0Ugeqf5Iud9r-19" target="KH_VAxzwDXU7XK9pUjr3-51" edge="1">
          <mxGeometry relative="1" as="geometry">
            <mxPoint x="290" y="900" as="sourcePoint" />
            <mxPoint x="450" y="900" as="targetPoint" />
          </mxGeometry>
        </mxCell>
        <mxCell id="FlwPuBfu0Ugeqf5Iud9r-23" value="" style="endArrow=none;html=1;rounded=0;" parent="1" source="KH_VAxzwDXU7XK9pUjr3-29" edge="1">
          <mxGeometry relative="1" as="geometry">
            <mxPoint x="950" y="440" as="sourcePoint" />
            <mxPoint x="954.1000317999044" y="447.71997456007625" as="targetPoint" />
          </mxGeometry>
        </mxCell>
        <mxCell id="FlwPuBfu0Ugeqf5Iud9r-24" value="Times" style="ellipse;whiteSpace=wrap;html=1;align=center;" parent="1" vertex="1">
          <mxGeometry x="901.5" y="200" width="60" height="30" as="geometry" />
        </mxCell>
        <mxCell id="FlwPuBfu0Ugeqf5Iud9r-25" value="" style="endArrow=none;html=1;rounded=0;" parent="1" source="KH_VAxzwDXU7XK9pUjr3-11" target="FlwPuBfu0Ugeqf5Iud9r-24" edge="1">
          <mxGeometry relative="1" as="geometry">
            <mxPoint x="920" y="340" as="sourcePoint" />
            <mxPoint x="1080" y="340" as="targetPoint" />
          </mxGeometry>
        </mxCell>
        <mxCell id="FlwPuBfu0Ugeqf5Iud9r-27" value="Código" style="ellipse;whiteSpace=wrap;html=1;align=center;fontStyle=4;" parent="1" vertex="1">
          <mxGeometry x="820" y="195" width="60" height="35" as="geometry" />
        </mxCell>
        <mxCell id="FlwPuBfu0Ugeqf5Iud9r-28" value="" style="endArrow=none;html=1;rounded=0;" parent="1" source="KH_VAxzwDXU7XK9pUjr3-11" target="FlwPuBfu0Ugeqf5Iud9r-27" edge="1">
          <mxGeometry relative="1" as="geometry">
            <mxPoint x="920" y="340" as="sourcePoint" />
            <mxPoint x="1080" y="340" as="targetPoint" />
          </mxGeometry>
        </mxCell>
        <mxCell id="FlwPuBfu0Ugeqf5Iud9r-29" value="Data" style="ellipse;whiteSpace=wrap;html=1;align=center;fontStyle=4;" parent="1" vertex="1">
          <mxGeometry x="950" y="420" width="50" height="40" as="geometry" />
        </mxCell>
        <mxCell id="FlwPuBfu0Ugeqf5Iud9r-30" value="Código" style="ellipse;whiteSpace=wrap;html=1;align=center;fontStyle=4;" parent="1" vertex="1">
          <mxGeometry x="190" y="600" width="60" height="35" as="geometry" />
        </mxCell>
        <mxCell id="FlwPuBfu0Ugeqf5Iud9r-31" value="Nome" style="ellipse;whiteSpace=wrap;html=1;align=center;" parent="1" vertex="1">
          <mxGeometry x="190" y="645" width="60" height="30" as="geometry" />
        </mxCell>
        <mxCell id="FlwPuBfu0Ugeqf5Iud9r-32" value="" style="endArrow=none;html=1;rounded=0;" parent="1" source="FlwPuBfu0Ugeqf5Iud9r-30" target="KH_VAxzwDXU7XK9pUjr3-58" edge="1">
          <mxGeometry relative="1" as="geometry">
            <mxPoint x="460" y="640" as="sourcePoint" />
            <mxPoint x="620" y="640" as="targetPoint" />
          </mxGeometry>
        </mxCell>
        <mxCell id="FlwPuBfu0Ugeqf5Iud9r-33" value="" style="endArrow=none;html=1;rounded=0;" parent="1" source="FlwPuBfu0Ugeqf5Iud9r-31" target="KH_VAxzwDXU7XK9pUjr3-58" edge="1">
          <mxGeometry relative="1" as="geometry">
            <mxPoint x="460" y="640" as="sourcePoint" />
            <mxPoint x="620" y="640" as="targetPoint" />
          </mxGeometry>
        </mxCell>
        <mxCell id="0oNlRzqe1ND49HaSwebw-1" value="Geolocalização" style="ellipse;whiteSpace=wrap;html=1;align=center;" vertex="1" parent="1">
          <mxGeometry x="925" y="824" width="100" height="40" as="geometry" />
        </mxCell>
        <mxCell id="0oNlRzqe1ND49HaSwebw-3" value="" style="endArrow=none;html=1;rounded=0;entryX=0;entryY=0;entryDx=0;entryDy=0;exitX=1;exitY=0.5;exitDx=0;exitDy=0;" edge="1" parent="1" source="0oNlRzqe1ND49HaSwebw-1" target="KH_VAxzwDXU7XK9pUjr3-102">
          <mxGeometry relative="1" as="geometry">
            <mxPoint x="720" y="794" as="sourcePoint" />
            <mxPoint x="880" y="794" as="targetPoint" />
          </mxGeometry>
        </mxCell>
        <mxCell id="0oNlRzqe1ND49HaSwebw-7" value="" style="endArrow=none;html=1;rounded=0;exitX=0;exitY=1;exitDx=0;exitDy=0;entryX=1;entryY=0.5;entryDx=0;entryDy=0;" edge="1" parent="1" source="KH_VAxzwDXU7XK9pUjr3-101" target="0oNlRzqe1ND49HaSwebw-22">
          <mxGeometry relative="1" as="geometry">
            <mxPoint x="720" y="794" as="sourcePoint" />
            <mxPoint x="510" y="950" as="targetPoint" />
          </mxGeometry>
        </mxCell>
        <mxCell id="0oNlRzqe1ND49HaSwebw-8" value="" style="endArrow=none;html=1;rounded=0;entryX=0;entryY=0.5;entryDx=0;entryDy=0;exitX=1;exitY=0.5;exitDx=0;exitDy=0;" edge="1" parent="1" source="KH_VAxzwDXU7XK9pUjr3-100" target="0oNlRzqe1ND49HaSwebw-17">
          <mxGeometry relative="1" as="geometry">
            <mxPoint x="1160" y="870" as="sourcePoint" />
            <mxPoint x="1231.5000000000196" y="980.0000000000002" as="targetPoint" />
          </mxGeometry>
        </mxCell>
        <mxCell id="0oNlRzqe1ND49HaSwebw-10" value="" style="endArrow=none;html=1;rounded=0;exitX=0;exitY=0;exitDx=0;exitDy=0;entryX=1;entryY=0.5;entryDx=0;entryDy=0;edgeStyle=orthogonalEdgeStyle;" edge="1" parent="1" source="KH_VAxzwDXU7XK9pUjr3-86" target="0oNlRzqe1ND49HaSwebw-18">
          <mxGeometry relative="1" as="geometry">
            <mxPoint x="720" y="794" as="sourcePoint" />
            <mxPoint x="770" y="964" as="targetPoint" />
            <Array as="points">
              <mxPoint x="640" y="1010" />
            </Array>
          </mxGeometry>
        </mxCell>
        <mxCell id="0oNlRzqe1ND49HaSwebw-12" value="" style="endArrow=none;html=1;rounded=0;entryX=0;entryY=1;entryDx=0;entryDy=0;exitX=1;exitY=0.5;exitDx=0;exitDy=0;" edge="1" parent="1" source="0oNlRzqe1ND49HaSwebw-26" target="KH_VAxzwDXU7XK9pUjr3-110">
          <mxGeometry relative="1" as="geometry">
            <mxPoint x="480" y="1254" as="sourcePoint" />
            <mxPoint x="1070" y="1237" as="targetPoint" />
          </mxGeometry>
        </mxCell>
        <mxCell id="0oNlRzqe1ND49HaSwebw-13" value="Geolocalização" style="ellipse;whiteSpace=wrap;html=1;align=center;" vertex="1" parent="1">
          <mxGeometry x="1180" y="1114" width="100" height="40" as="geometry" />
        </mxCell>
        <mxCell id="0oNlRzqe1ND49HaSwebw-14" value="" style="endArrow=none;html=1;rounded=0;entryX=1;entryY=1;entryDx=0;entryDy=0;exitX=0;exitY=0.5;exitDx=0;exitDy=0;" edge="1" parent="1" source="0oNlRzqe1ND49HaSwebw-13" target="KH_VAxzwDXU7XK9pUjr3-99">
          <mxGeometry relative="1" as="geometry">
            <mxPoint x="720" y="794" as="sourcePoint" />
            <mxPoint x="880" y="794" as="targetPoint" />
          </mxGeometry>
        </mxCell>
        <mxCell id="0oNlRzqe1ND49HaSwebw-15" value="Data" style="ellipse;whiteSpace=wrap;html=1;align=center;fontStyle=4;" vertex="1" parent="1">
          <mxGeometry x="1317.5" y="350" width="50" height="40" as="geometry" />
        </mxCell>
        <mxCell id="0oNlRzqe1ND49HaSwebw-16" value="" style="endArrow=none;html=1;rounded=0;entryX=1;entryY=1;entryDx=0;entryDy=0;exitX=0;exitY=0;exitDx=0;exitDy=0;" edge="1" parent="1" source="0oNlRzqe1ND49HaSwebw-15" target="KH_VAxzwDXU7XK9pUjr3-1">
          <mxGeometry relative="1" as="geometry">
            <mxPoint x="720" y="590" as="sourcePoint" />
            <mxPoint x="880" y="590" as="targetPoint" />
          </mxGeometry>
        </mxCell>
        <mxCell id="0oNlRzqe1ND49HaSwebw-17" value="Posição" style="ellipse;shape=doubleEllipse;margin=3;whiteSpace=wrap;html=1;align=center;" vertex="1" parent="1">
          <mxGeometry x="1229" y="960" width="60" height="40" as="geometry" />
        </mxCell>
        <mxCell id="0oNlRzqe1ND49HaSwebw-18" value="Torce" style="shape=rhombus;perimeter=rhombusPerimeter;whiteSpace=wrap;html=1;align=center;" vertex="1" parent="1">
          <mxGeometry x="550" y="860" width="90" height="50" as="geometry" />
        </mxCell>
        <mxCell id="0oNlRzqe1ND49HaSwebw-19" value="" style="endArrow=none;html=1;rounded=0;exitX=1;exitY=1;exitDx=0;exitDy=0;entryX=0.5;entryY=0;entryDx=0;entryDy=0;" edge="1" parent="1" source="KH_VAxzwDXU7XK9pUjr3-160" target="0oNlRzqe1ND49HaSwebw-18">
          <mxGeometry relative="1" as="geometry">
            <mxPoint x="720" y="794" as="sourcePoint" />
            <mxPoint x="880" y="794" as="targetPoint" />
          </mxGeometry>
        </mxCell>
        <mxCell id="0oNlRzqe1ND49HaSwebw-20" value="(1,N)" style="resizable=0;html=1;whiteSpace=wrap;align=right;verticalAlign=bottom;" connectable="0" vertex="1" parent="1">
          <mxGeometry x="570.004117647059" y="804" as="geometry" />
        </mxCell>
        <mxCell id="0oNlRzqe1ND49HaSwebw-21" value="(1,N)" style="resizable=0;html=1;whiteSpace=wrap;align=right;verticalAlign=bottom;" connectable="0" vertex="1" parent="1">
          <mxGeometry x="1049.004117647059" y="1010" as="geometry" />
        </mxCell>
        <mxCell id="0oNlRzqe1ND49HaSwebw-22" value="Dirige" style="shape=rhombus;perimeter=rhombusPerimeter;whiteSpace=wrap;html=1;align=center;" vertex="1" parent="1">
          <mxGeometry x="486" y="924" width="90" height="50" as="geometry" />
        </mxCell>
        <mxCell id="0oNlRzqe1ND49HaSwebw-25" value="" style="endArrow=none;html=1;rounded=0;exitX=1;exitY=1;exitDx=0;exitDy=0;entryX=0.5;entryY=0;entryDx=0;entryDy=0;" edge="1" parent="1" source="KH_VAxzwDXU7XK9pUjr3-160" target="0oNlRzqe1ND49HaSwebw-22">
          <mxGeometry relative="1" as="geometry">
            <mxPoint x="720" y="864" as="sourcePoint" />
            <mxPoint x="880" y="864" as="targetPoint" />
          </mxGeometry>
        </mxCell>
        <mxCell id="0oNlRzqe1ND49HaSwebw-26" value="Patrocina" style="shape=rhombus;perimeter=rhombusPerimeter;whiteSpace=wrap;html=1;align=center;" vertex="1" parent="1">
          <mxGeometry x="386" y="1190" width="90" height="50" as="geometry" />
        </mxCell>
        <mxCell id="0oNlRzqe1ND49HaSwebw-27" value="" style="endArrow=none;html=1;rounded=0;exitX=0;exitY=1;exitDx=0;exitDy=0;entryX=0.5;entryY=0;entryDx=0;entryDy=0;" edge="1" parent="1" source="KH_VAxzwDXU7XK9pUjr3-160" target="0oNlRzqe1ND49HaSwebw-26">
          <mxGeometry relative="1" as="geometry">
            <mxPoint x="410" y="824" as="sourcePoint" />
            <mxPoint x="370" y="1154" as="targetPoint" />
          </mxGeometry>
        </mxCell>
        <mxCell id="0oNlRzqe1ND49HaSwebw-28" value="Define" style="shape=rhombus;perimeter=rhombusPerimeter;whiteSpace=wrap;html=1;align=center;" vertex="1" parent="1">
          <mxGeometry x="1044" y="699.75" width="90" height="50" as="geometry" />
        </mxCell>
        <mxCell id="0oNlRzqe1ND49HaSwebw-29" value="Define" style="shape=rhombus;perimeter=rhombusPerimeter;whiteSpace=wrap;html=1;align=center;" vertex="1" parent="1">
          <mxGeometry x="910" y="699.75" width="90" height="50" as="geometry" />
        </mxCell>
        <mxCell id="0oNlRzqe1ND49HaSwebw-30" value="Define" style="shape=rhombus;perimeter=rhombusPerimeter;whiteSpace=wrap;html=1;align=center;" vertex="1" parent="1">
          <mxGeometry x="770" y="699.75" width="90" height="50" as="geometry" />
        </mxCell>
        <mxCell id="0oNlRzqe1ND49HaSwebw-31" value="Joga" style="shape=rhombus;perimeter=rhombusPerimeter;whiteSpace=wrap;html=1;align=center;" vertex="1" parent="1">
          <mxGeometry x="545" y="514.25" width="90" height="50" as="geometry" />
        </mxCell>
        <mxCell id="0oNlRzqe1ND49HaSwebw-32" value="Joga" style="shape=rhombus;perimeter=rhombusPerimeter;whiteSpace=wrap;html=1;align=center;" vertex="1" parent="1">
          <mxGeometry x="545" y="575.25" width="90" height="50" as="geometry" />
        </mxCell>
        <mxCell id="0oNlRzqe1ND49HaSwebw-33" value="Joga" style="shape=rhombus;perimeter=rhombusPerimeter;whiteSpace=wrap;html=1;align=center;" vertex="1" parent="1">
          <mxGeometry x="545" y="649.75" width="90" height="50" as="geometry" />
        </mxCell>
        <mxCell id="0oNlRzqe1ND49HaSwebw-34" value="" style="endArrow=none;html=1;rounded=0;exitX=1;exitY=0;exitDx=0;exitDy=0;edgeStyle=orthogonalEdgeStyle;" edge="1" parent="1" source="KH_VAxzwDXU7XK9pUjr3-136">
          <mxGeometry relative="1" as="geometry">
            <mxPoint x="880" y="880" as="sourcePoint" />
            <mxPoint x="1090" y="750" as="targetPoint" />
          </mxGeometry>
        </mxCell>
        <mxCell id="0oNlRzqe1ND49HaSwebw-35" value="" style="endArrow=none;html=1;rounded=0;exitX=0.75;exitY=0;exitDx=0;exitDy=0;entryX=0.5;entryY=1;entryDx=0;entryDy=0;edgeStyle=orthogonalEdgeStyle;" edge="1" parent="1" source="KH_VAxzwDXU7XK9pUjr3-136" target="0oNlRzqe1ND49HaSwebw-29">
          <mxGeometry relative="1" as="geometry">
            <mxPoint x="900" y="794" as="sourcePoint" />
            <mxPoint x="1100" y="760" as="targetPoint" />
            <Array as="points">
              <mxPoint x="865" y="760" />
              <mxPoint x="955" y="760" />
            </Array>
          </mxGeometry>
        </mxCell>
        <mxCell id="0oNlRzqe1ND49HaSwebw-36" value="" style="endArrow=none;html=1;rounded=0;exitX=0.25;exitY=0;exitDx=0;exitDy=0;entryX=0.5;entryY=1;entryDx=0;entryDy=0;" edge="1" parent="1" source="KH_VAxzwDXU7XK9pUjr3-136" target="0oNlRzqe1ND49HaSwebw-30">
          <mxGeometry relative="1" as="geometry">
            <mxPoint x="875" y="794" as="sourcePoint" />
            <mxPoint x="965" y="760" as="targetPoint" />
          </mxGeometry>
        </mxCell>
        <mxCell id="0oNlRzqe1ND49HaSwebw-37" value="" style="endArrow=none;html=1;rounded=0;entryX=0;entryY=0.5;entryDx=0;entryDy=0;exitX=1;exitY=0.5;exitDx=0;exitDy=0;" edge="1" parent="1" source="0oNlRzqe1ND49HaSwebw-31" target="KH_VAxzwDXU7XK9pUjr3-2">
          <mxGeometry relative="1" as="geometry">
            <mxPoint x="880" y="880" as="sourcePoint" />
            <mxPoint x="1040" y="880" as="targetPoint" />
          </mxGeometry>
        </mxCell>
        <mxCell id="0oNlRzqe1ND49HaSwebw-42" value="" style="endArrow=none;html=1;rounded=0;entryX=0;entryY=1;entryDx=0;entryDy=0;exitX=1;exitY=0.5;exitDx=0;exitDy=0;edgeStyle=orthogonalEdgeStyle;" edge="1" parent="1" source="0oNlRzqe1ND49HaSwebw-32" target="KH_VAxzwDXU7XK9pUjr3-4">
          <mxGeometry relative="1" as="geometry">
            <mxPoint x="880" y="880" as="sourcePoint" />
            <mxPoint x="1040" y="880" as="targetPoint" />
          </mxGeometry>
        </mxCell>
        <mxCell id="0oNlRzqe1ND49HaSwebw-43" value="" style="endArrow=none;html=1;rounded=0;entryX=0;entryY=1;entryDx=0;entryDy=0;exitX=1;exitY=0.5;exitDx=0;exitDy=0;edgeStyle=orthogonalEdgeStyle;" edge="1" parent="1" source="0oNlRzqe1ND49HaSwebw-33" target="KH_VAxzwDXU7XK9pUjr3-5">
          <mxGeometry relative="1" as="geometry">
            <mxPoint x="880" y="880" as="sourcePoint" />
            <mxPoint x="1040" y="880" as="targetPoint" />
          </mxGeometry>
        </mxCell>
        <mxCell id="0oNlRzqe1ND49HaSwebw-44" value="" style="endArrow=none;html=1;rounded=0;exitX=0.5;exitY=1;exitDx=0;exitDy=0;entryX=1;entryY=0;entryDx=0;entryDy=0;edgeStyle=orthogonalEdgeStyle;" edge="1" parent="1" source="0oNlRzqe1ND49HaSwebw-33" target="KH_VAxzwDXU7XK9pUjr3-160">
          <mxGeometry relative="1" as="geometry">
            <mxPoint x="880" y="880" as="sourcePoint" />
            <mxPoint x="1040" y="880" as="targetPoint" />
            <Array as="points">
              <mxPoint x="590" y="744" />
            </Array>
          </mxGeometry>
        </mxCell>
        <mxCell id="0oNlRzqe1ND49HaSwebw-45" value="" style="endArrow=none;html=1;rounded=0;exitX=0;exitY=1;exitDx=0;exitDy=0;entryX=1;entryY=0;entryDx=0;entryDy=0;edgeStyle=orthogonalEdgeStyle;" edge="1" parent="1" source="0oNlRzqe1ND49HaSwebw-32" target="KH_VAxzwDXU7XK9pUjr3-160">
          <mxGeometry relative="1" as="geometry">
            <mxPoint x="880" y="880" as="sourcePoint" />
            <mxPoint x="1040" y="880" as="targetPoint" />
          </mxGeometry>
        </mxCell>
        <mxCell id="0oNlRzqe1ND49HaSwebw-46" value="" style="endArrow=none;html=1;rounded=0;exitX=0;exitY=0.5;exitDx=0;exitDy=0;entryX=0.75;entryY=0;entryDx=0;entryDy=0;edgeStyle=orthogonalEdgeStyle;" edge="1" parent="1" source="0oNlRzqe1ND49HaSwebw-31" target="KH_VAxzwDXU7XK9pUjr3-160">
          <mxGeometry relative="1" as="geometry">
            <mxPoint x="880" y="880" as="sourcePoint" />
            <mxPoint x="1040" y="880" as="targetPoint" />
          </mxGeometry>
        </mxCell>
        <mxCell id="0oNlRzqe1ND49HaSwebw-47" value="" style="endArrow=none;html=1;rounded=0;exitX=0.5;exitY=0;exitDx=0;exitDy=0;entryX=0;entryY=1;entryDx=0;entryDy=0;edgeStyle=orthogonalEdgeStyle;" edge="1" parent="1" source="0oNlRzqe1ND49HaSwebw-30" target="KH_VAxzwDXU7XK9pUjr3-2">
          <mxGeometry relative="1" as="geometry">
            <mxPoint x="880" y="880" as="sourcePoint" />
            <mxPoint x="1040" y="880" as="targetPoint" />
            <Array as="points">
              <mxPoint x="815" y="560" />
            </Array>
          </mxGeometry>
        </mxCell>
        <mxCell id="0oNlRzqe1ND49HaSwebw-48" value="" style="endArrow=none;html=1;rounded=0;entryX=1;entryY=1;entryDx=0;entryDy=0;exitX=0.5;exitY=0;exitDx=0;exitDy=0;edgeStyle=orthogonalEdgeStyle;" edge="1" parent="1" source="0oNlRzqe1ND49HaSwebw-29" target="KH_VAxzwDXU7XK9pUjr3-4">
          <mxGeometry relative="1" as="geometry">
            <mxPoint x="880" y="880" as="sourcePoint" />
            <mxPoint x="1040" y="880" as="targetPoint" />
          </mxGeometry>
        </mxCell>
        <mxCell id="0oNlRzqe1ND49HaSwebw-49" value="" style="endArrow=none;html=1;rounded=0;entryX=0.25;entryY=1;entryDx=0;entryDy=0;exitX=1;exitY=0.5;exitDx=0;exitDy=0;edgeStyle=orthogonalEdgeStyle;" edge="1" parent="1" source="0oNlRzqe1ND49HaSwebw-28" target="KH_VAxzwDXU7XK9pUjr3-5">
          <mxGeometry relative="1" as="geometry">
            <mxPoint x="880" y="880" as="sourcePoint" />
            <mxPoint x="1040" y="880" as="targetPoint" />
          </mxGeometry>
        </mxCell>
        <mxCell id="0oNlRzqe1ND49HaSwebw-50" value="(1,N)" style="resizable=0;html=1;whiteSpace=wrap;align=right;verticalAlign=bottom;" connectable="0" vertex="1" parent="1">
          <mxGeometry x="510.004117647059" y="699.75" as="geometry" />
        </mxCell>
        <mxCell id="0oNlRzqe1ND49HaSwebw-51" value="(1,N)" style="resizable=0;html=1;whiteSpace=wrap;align=right;verticalAlign=bottom;" connectable="0" vertex="1" parent="1">
          <mxGeometry x="560.004117647059" y="764" as="geometry" />
        </mxCell>
        <mxCell id="0oNlRzqe1ND49HaSwebw-52" value="(1,N)" style="resizable=0;html=1;whiteSpace=wrap;align=right;verticalAlign=bottom;" connectable="0" vertex="1" parent="1">
          <mxGeometry x="570.004117647059" y="744" as="geometry" />
        </mxCell>
        <mxCell id="0oNlRzqe1ND49HaSwebw-53" value="(1,1)" style="resizable=0;html=1;whiteSpace=wrap;align=right;verticalAlign=bottom;" connectable="0" vertex="1" parent="1">
          <mxGeometry x="1070.0029411764708" y="539.25" as="geometry" />
        </mxCell>
        <mxCell id="0oNlRzqe1ND49HaSwebw-54" value="(1,1)" style="resizable=0;html=1;whiteSpace=wrap;align=right;verticalAlign=bottom;" connectable="0" vertex="1" parent="1">
          <mxGeometry x="1190.0029411764708" y="600" as="geometry" />
        </mxCell>
        <mxCell id="0oNlRzqe1ND49HaSwebw-55" value="(1,1)" style="resizable=0;html=1;whiteSpace=wrap;align=right;verticalAlign=bottom;" connectable="0" vertex="1" parent="1">
          <mxGeometry x="1337.5029411764708" y="580" as="geometry" />
        </mxCell>
        <mxCell id="0oNlRzqe1ND49HaSwebw-56" value="(1,1)" style="resizable=0;html=1;whiteSpace=wrap;align=right;verticalAlign=bottom;" connectable="0" vertex="1" parent="1">
          <mxGeometry x="860.0029411764708" y="779" as="geometry" />
        </mxCell>
        <mxCell id="0oNlRzqe1ND49HaSwebw-57" value="(1,1)" style="resizable=0;html=1;whiteSpace=wrap;align=right;verticalAlign=bottom;" connectable="0" vertex="1" parent="1">
          <mxGeometry x="810.0029411764708" y="779" as="geometry" />
        </mxCell>
        <mxCell id="0oNlRzqe1ND49HaSwebw-58" value="(1,1)" style="resizable=0;html=1;whiteSpace=wrap;align=right;verticalAlign=bottom;" connectable="0" vertex="1" parent="1">
          <mxGeometry x="925.0029411764708" y="784" as="geometry" />
        </mxCell>
        <mxCell id="0oNlRzqe1ND49HaSwebw-59" value="(1,1)" style="resizable=0;html=1;whiteSpace=wrap;align=right;verticalAlign=bottom;" connectable="0" vertex="1" parent="1">
          <mxGeometry x="1200.0029411764708" y="610" as="geometry">
            <mxPoint x="-132" y="-54" as="offset" />
          </mxGeometry>
        </mxCell>
        <mxCell id="0oNlRzqe1ND49HaSwebw-61" value="(1,1)" style="resizable=0;html=1;whiteSpace=wrap;align=right;verticalAlign=bottom;" connectable="0" vertex="1" parent="1">
          <mxGeometry x="1307.5029411764708" y="610" as="geometry" />
        </mxCell>
        <mxCell id="0oNlRzqe1ND49HaSwebw-62" value="(1,1)" style="resizable=0;html=1;whiteSpace=wrap;align=right;verticalAlign=bottom;" connectable="0" vertex="1" parent="1">
          <mxGeometry x="1364.0029411764708" y="590" as="geometry" />
        </mxCell>
      </root>
    </mxGraphModel>
  </diagram>
</mxfile>
